<svg width="24" height="23" viewBox="0 0 24 23" fill="none" xmlns="http://www.w3.org/2000/svg">
<path d="M11.345 0.738688C11.6129 0.198106 12.3871 0.198107 12.6551 0.738688L15.6944 6.87035C15.8008 7.08501 16.0065 7.2338 16.2444 7.26822L23.0405 8.25148C23.6396 8.33817 23.8789 9.07129 23.4453 9.49207L18.5276 14.2649C18.3555 14.432 18.2769 14.6727 18.3175 14.9087L19.4785 21.648C19.5808 22.2422 18.9545 22.6953 18.4186 22.4148L12.34 19.2329C12.1272 19.1215 11.8729 19.1215 11.6601 19.2329L5.58152 22.4148C5.04562 22.6953 4.41928 22.2422 4.52163 21.648L5.68254 14.9087C5.72318 14.6727 5.64462 14.432 5.47245 14.2649L0.55477 9.49207C0.121215 9.07129 0.360457 8.33817 0.959614 8.25148L7.75569 7.26822C7.99361 7.2338 8.19929 7.08501 8.30569 6.87035L11.345 0.738688Z" fill="#141C24"/>
</svg>
