<svg width="20" height="20" viewBox="0 0 20 20" fill="none" xmlns="http://www.w3.org/2000/svg">
<path d="M10.7027 15.1309C12.0871 15.8277 13.7098 16.3359 15.6048 16.5681C16.1781 16.6383 16.6667 16.1779 16.6667 15.6002V14.1143C16.6667 13.6554 16.3544 13.2554 15.9092 13.1441L13.8827 12.6375C13.5419 12.5523 13.1814 12.6521 12.933 12.9005L10.7027 15.1309ZM10.7027 15.1309C8.10628 13.8241 6.34758 11.8543 5.20101 9.79919M5.20101 9.79919C4.14695 7.90987 3.61022 5.94843 3.41559 4.36377C3.34667 3.80265 3.80192 3.3335 4.36726 3.3335H5.8469C6.32359 3.3335 6.734 3.66996 6.82748 4.13738L7.39508 6.97537C7.46065 7.30323 7.35803 7.64217 7.12161 7.87859L5.20101 9.79919Z" stroke="#97A1AF" stroke-width="1.5"/>
</svg>
