<svg width="629" height="568" viewBox="0 0 629 568" fill="none" xmlns="http://www.w3.org/2000/svg">
<circle cx="529" cy="130" r="100" transform="rotate(-180 529 130)" fill="url(#paint0_linear_22_379)"/>
<circle cx="276" cy="308" r="50" transform="rotate(-180 276 308)" fill="url(#paint1_linear_22_379)"/>
<circle cx="153" cy="130" r="50" transform="rotate(-180 153 130)" fill="url(#paint2_linear_22_379)"/>
<circle cx="103" cy="443" r="50" transform="rotate(-180 103 443)" fill="url(#paint3_linear_22_379)"/>
<circle cx="351" cy="205" r="25" transform="rotate(-180 351 205)" fill="url(#paint4_linear_22_379)"/>
<circle cx="527" cy="343" r="25" transform="rotate(-180 527 343)" fill="url(#paint5_linear_22_379)"/>
<circle cx="366" cy="493" r="25" transform="rotate(-180 366 493)" fill="url(#paint6_linear_22_379)"/>
<circle cx="211" cy="543" r="25" transform="rotate(-180 211 543)" fill="url(#paint7_linear_22_379)"/>
<circle cx="158" cy="343" r="25" transform="rotate(-180 158 343)" fill="url(#paint8_linear_22_379)"/>
<circle cx="25" cy="190" r="25" transform="rotate(-180 25 190)" fill="url(#paint9_linear_22_379)"/>
<circle cx="28" cy="333" r="25" transform="rotate(-180 28 333)" fill="url(#paint10_linear_22_379)"/>
<circle cx="366" cy="393" r="25" transform="rotate(-180 366 393)" fill="url(#paint11_linear_22_379)"/>
<circle cx="276" cy="107" r="25" transform="rotate(-180 276 107)" fill="url(#paint12_linear_22_379)"/>
<circle cx="261" cy="215" r="15" transform="rotate(-180 261 215)" fill="url(#paint13_linear_22_379)"/>
<circle cx="118" cy="230" r="15" transform="rotate(-180 118 230)" fill="url(#paint14_linear_22_379)"/>
<circle cx="251" cy="443" r="15" transform="rotate(-180 251 443)" fill="url(#paint15_linear_22_379)"/>
<circle cx="241" cy="15" r="15" transform="rotate(-180 241 15)" fill="url(#paint16_linear_22_379)"/>
<circle cx="455" cy="273" r="15" transform="rotate(-180 455 273)" fill="url(#paint17_linear_22_379)"/>
<circle cx="582" cy="273" r="15" transform="rotate(-180 582 273)" fill="url(#paint18_linear_22_379)"/>
<circle cx="366" cy="67" r="15" transform="rotate(-180 366 67)" fill="url(#paint19_linear_22_379)"/>
<circle cx="414" cy="343" r="15" transform="rotate(-180 414 343)" fill="url(#paint20_linear_22_379)"/>
<defs>
<linearGradient id="paint0_linear_22_379" x1="529" y1="30" x2="529" y2="230" gradientUnits="userSpaceOnUse">
<stop stop-color="#44C6E9" stop-opacity="0.5"/>
<stop offset="1" stop-color="#D4E4F4" stop-opacity="0.3"/>
</linearGradient>
<linearGradient id="paint1_linear_22_379" x1="276" y1="258" x2="276" y2="358" gradientUnits="userSpaceOnUse">
<stop stop-color="#44C6E9" stop-opacity="0.5"/>
<stop offset="1" stop-color="#D4E4F4" stop-opacity="0.3"/>
</linearGradient>
<linearGradient id="paint2_linear_22_379" x1="153" y1="80" x2="153" y2="180" gradientUnits="userSpaceOnUse">
<stop stop-color="#44C6E9" stop-opacity="0.5"/>
<stop offset="1" stop-color="#D4E4F4" stop-opacity="0.3"/>
</linearGradient>
<linearGradient id="paint3_linear_22_379" x1="103" y1="393" x2="103" y2="493" gradientUnits="userSpaceOnUse">
<stop stop-color="#44C6E9" stop-opacity="0.5"/>
<stop offset="1" stop-color="#D4E4F4" stop-opacity="0.3"/>
</linearGradient>
<linearGradient id="paint4_linear_22_379" x1="351" y1="180" x2="351" y2="230" gradientUnits="userSpaceOnUse">
<stop stop-color="#44C6E9" stop-opacity="0.5"/>
<stop offset="1" stop-color="#D4E4F4" stop-opacity="0.3"/>
</linearGradient>
<linearGradient id="paint5_linear_22_379" x1="527" y1="318" x2="527" y2="368" gradientUnits="userSpaceOnUse">
<stop stop-color="#44C6E9" stop-opacity="0.5"/>
<stop offset="1" stop-color="#D4E4F4" stop-opacity="0.3"/>
</linearGradient>
<linearGradient id="paint6_linear_22_379" x1="366" y1="468" x2="366" y2="518" gradientUnits="userSpaceOnUse">
<stop stop-color="#44C6E9" stop-opacity="0.5"/>
<stop offset="1" stop-color="#D4E4F4" stop-opacity="0.3"/>
</linearGradient>
<linearGradient id="paint7_linear_22_379" x1="211" y1="518" x2="211" y2="568" gradientUnits="userSpaceOnUse">
<stop stop-color="#44C6E9" stop-opacity="0.5"/>
<stop offset="1" stop-color="#D4E4F4" stop-opacity="0.3"/>
</linearGradient>
<linearGradient id="paint8_linear_22_379" x1="158" y1="318" x2="158" y2="368" gradientUnits="userSpaceOnUse">
<stop stop-color="#44C6E9" stop-opacity="0.5"/>
<stop offset="1" stop-color="#D4E4F4" stop-opacity="0.3"/>
</linearGradient>
<linearGradient id="paint9_linear_22_379" x1="25" y1="165" x2="25" y2="215" gradientUnits="userSpaceOnUse">
<stop stop-color="#44C6E9" stop-opacity="0.5"/>
<stop offset="1" stop-color="#D4E4F4" stop-opacity="0.3"/>
</linearGradient>
<linearGradient id="paint10_linear_22_379" x1="28" y1="308" x2="28" y2="358" gradientUnits="userSpaceOnUse">
<stop stop-color="#44C6E9" stop-opacity="0.5"/>
<stop offset="1" stop-color="#D4E4F4" stop-opacity="0.3"/>
</linearGradient>
<linearGradient id="paint11_linear_22_379" x1="366" y1="368" x2="366" y2="418" gradientUnits="userSpaceOnUse">
<stop stop-color="#44C6E9" stop-opacity="0.5"/>
<stop offset="1" stop-color="#D4E4F4" stop-opacity="0.3"/>
</linearGradient>
<linearGradient id="paint12_linear_22_379" x1="276" y1="82" x2="276" y2="132" gradientUnits="userSpaceOnUse">
<stop stop-color="#44C6E9" stop-opacity="0.5"/>
<stop offset="1" stop-color="#D4E4F4" stop-opacity="0.3"/>
</linearGradient>
<linearGradient id="paint13_linear_22_379" x1="261" y1="200" x2="261" y2="230" gradientUnits="userSpaceOnUse">
<stop stop-color="#44C6E9" stop-opacity="0.5"/>
<stop offset="1" stop-color="#D4E4F4" stop-opacity="0.3"/>
</linearGradient>
<linearGradient id="paint14_linear_22_379" x1="118" y1="215" x2="118" y2="245" gradientUnits="userSpaceOnUse">
<stop stop-color="#44C6E9" stop-opacity="0.5"/>
<stop offset="1" stop-color="#D4E4F4" stop-opacity="0.3"/>
</linearGradient>
<linearGradient id="paint15_linear_22_379" x1="251" y1="428" x2="251" y2="458" gradientUnits="userSpaceOnUse">
<stop stop-color="#44C6E9" stop-opacity="0.5"/>
<stop offset="1" stop-color="#D4E4F4" stop-opacity="0.3"/>
</linearGradient>
<linearGradient id="paint16_linear_22_379" x1="241" y1="0" x2="241" y2="30" gradientUnits="userSpaceOnUse">
<stop stop-color="#44C6E9" stop-opacity="0.5"/>
<stop offset="1" stop-color="#D4E4F4" stop-opacity="0.3"/>
</linearGradient>
<linearGradient id="paint17_linear_22_379" x1="455" y1="258" x2="455" y2="288" gradientUnits="userSpaceOnUse">
<stop stop-color="#44C6E9" stop-opacity="0.5"/>
<stop offset="1" stop-color="#D4E4F4" stop-opacity="0.3"/>
</linearGradient>
<linearGradient id="paint18_linear_22_379" x1="582" y1="258" x2="582" y2="288" gradientUnits="userSpaceOnUse">
<stop stop-color="#44C6E9" stop-opacity="0.5"/>
<stop offset="1" stop-color="#D4E4F4" stop-opacity="0.3"/>
</linearGradient>
<linearGradient id="paint19_linear_22_379" x1="366" y1="52" x2="366" y2="82" gradientUnits="userSpaceOnUse">
<stop stop-color="#44C6E9" stop-opacity="0.5"/>
<stop offset="1" stop-color="#D4E4F4" stop-opacity="0.3"/>
</linearGradient>
<linearGradient id="paint20_linear_22_379" x1="414" y1="328" x2="414" y2="358" gradientUnits="userSpaceOnUse">
<stop stop-color="#44C6E9" stop-opacity="0.5"/>
<stop offset="1" stop-color="#D4E4F4" stop-opacity="0.3"/>
</linearGradient>
</defs>
</svg>
