<svg width="66" height="70" viewBox="0 0 66 70" fill="none" xmlns="http://www.w3.org/2000/svg">
<g clip-path="url(#clip0_12_470)">
<path fill-rule="evenodd" clip-rule="evenodd" d="M41.112 1.37244C36.1292 3.50723 28.9378 3.50722 23.955 1.37243C19.9065 -0.362067 15.3781 -0.522914 11.1997 1.2946C2.38198 5.13011 -1.57294 16.3387 2.26489 26.4498C2.26574 26.4521 2.26571 26.4546 2.26478 26.4568L3.46243 29.061C7.5109 37.8641 10.5625 47.0923 12.5603 56.5735L14.4608 65.5927C15.1185 68.1855 17.4426 70 20.1059 70C22.9662 70 25.4034 67.9137 25.8575 65.0765L28.5368 48.3363C28.8523 46.3647 30.5459 44.9149 32.5336 44.9149C34.5213 44.9149 36.2149 46.3647 36.5304 48.3363L39.2096 65.0765C39.6637 67.9137 42.1009 70 44.9612 70C47.6245 70 49.9486 68.1855 50.6063 65.5927L52.5068 56.5735C54.5047 47.0923 57.5562 37.8641 61.6047 29.061L62.8024 26.4568C62.8014 26.4546 62.8014 26.4521 62.8022 26.4498C66.6401 16.3387 62.6851 5.13011 53.8674 1.2946C49.689 -0.522933 45.1605 -0.362076 41.112 1.37244Z" fill="url(#paint0_linear_12_470)"/>
<g filter="url(#filter0_f_12_470)">
<path d="M13.049 8.40222L12.5765 6.14754C12.4363 5.47888 11.8467 5 11.1635 5C10.4611 5 9.86069 5.50547 9.74094 6.19754L9.40089 8.16286C8.90693 11.0176 6.70536 13.2731 3.86335 13.836L0.890152 14.4249C0.256521 14.5504 -0.200048 15.1062 -0.200048 15.7522C-0.200048 16.4183 0.284859 16.9854 0.942966 17.0888L3.58705 17.5044C6.56825 17.9729 8.91361 20.2992 9.40637 23.2765L9.74985 25.3519C9.86425 26.0431 10.462 26.55 11.1626 26.55C11.8449 26.55 12.4325 26.0685 12.5666 25.3995L13.0387 23.0447C13.6121 20.1841 15.8997 17.9792 18.7794 17.5112L21.3414 17.0949C22.0002 16.9879 22.4842 16.4189 22.4842 15.7514C22.4842 15.1049 22.0294 14.5477 21.3961 14.418L18.4958 13.824C15.7617 13.2641 13.6215 11.1337 13.049 8.40222Z" fill="url(#paint1_linear_12_470)"/>
</g>
<path d="M12.3189 9.79631L11.7795 5.55364C11.7393 5.23719 11.4701 5 11.1511 5C10.8244 5 10.5513 5.24835 10.5204 5.57352L10.1195 9.78674C9.88356 12.266 7.94958 14.2446 5.47633 14.5369L0.352989 15.1425C0.0375805 15.1798 -0.200048 15.4472 -0.200048 15.7648C-0.200048 16.091 0.05023 16.3626 0.375345 16.3893L5.20768 16.7854C7.81366 16.9991 9.88902 19.0549 10.1273 21.6587L10.5225 25.9766C10.5522 26.3014 10.8246 26.55 11.1507 26.55C11.4695 26.55 11.7382 26.3121 11.7769 25.9957L12.308 21.652C12.6283 19.032 14.7422 16.9958 17.3723 16.7738L21.9086 16.3907C22.234 16.3632 22.4842 16.0911 22.4842 15.7645C22.4842 15.4468 22.247 15.179 21.9317 15.1406L17.1002 14.5524C14.6055 14.2487 12.6358 12.2894 12.3189 9.79631Z" fill="url(#paint2_linear_12_470)"/>
<g filter="url(#filter1_f_12_470)">
<path d="M52.0992 37.4873L51.9387 36.7215C51.8506 36.3011 51.4799 36 51.0503 36C50.6087 36 50.2311 36.3178 50.1559 36.753L50.0632 37.2883C49.6796 39.5053 47.97 41.2568 45.763 41.6939L44.5907 41.9261C44.1923 42.005 43.9053 42.3545 43.9053 42.7606C43.9053 43.1795 44.2101 43.5361 44.6239 43.6011L45.5322 43.7438C47.857 44.1092 49.6859 45.9233 50.0702 48.245L50.1615 48.7966C50.2334 49.2313 50.6092 49.55 51.0497 49.55C51.4788 49.55 51.8482 49.2473 51.9325 48.8266L52.1321 47.8313C52.5512 45.7407 54.223 44.1293 56.3276 43.7873L57.4498 43.6049C57.8641 43.5376 58.1684 43.1798 58.1684 42.7602C58.1684 42.3537 57.8825 42.0033 57.4843 41.9217L56.3131 41.6819C54.1979 41.2487 52.5421 39.6005 52.0992 37.4873Z" fill="url(#paint3_linear_12_470)"/>
</g>
<path d="M51.7768 39.0158L51.4377 36.3481C51.4124 36.1491 51.2431 36 51.0425 36C50.8371 36 50.6654 36.1562 50.6459 36.3606L50.3939 39.0098C50.2455 40.5686 49.0295 41.8127 47.4744 41.9965L44.253 42.3773C44.0547 42.4008 43.9053 42.5689 43.9053 42.7686C43.9053 42.9737 44.0626 43.1445 44.267 43.1612L47.3055 43.4103C48.944 43.5447 50.249 44.8373 50.3988 46.4745L50.6473 49.1895C50.6659 49.3937 50.8372 49.55 51.0423 49.55C51.2427 49.55 51.4117 49.4004 51.436 49.2015L51.7699 46.4703C51.9714 44.8229 53.3005 43.5426 54.9542 43.403L57.8065 43.1621C58.0111 43.1449 58.1684 42.9737 58.1684 42.7684C58.1684 42.5686 58.0193 42.4003 57.821 42.3761L54.7831 42.0063C53.2145 41.8153 51.9761 40.5833 51.7768 39.0158Z" fill="url(#paint4_linear_12_470)"/>
</g>
<defs>
<filter id="filter0_f_12_470" x="-4.20004" y="1" width="30.6842" height="29.55" filterUnits="userSpaceOnUse" color-interpolation-filters="sRGB">
<feFlood flood-opacity="0" result="BackgroundImageFix"/>
<feBlend mode="normal" in="SourceGraphic" in2="BackgroundImageFix" result="shape"/>
<feGaussianBlur stdDeviation="2" result="effect1_foregroundBlur_12_470"/>
</filter>
<filter id="filter1_f_12_470" x="39.9053" y="32" width="22.2632" height="21.55" filterUnits="userSpaceOnUse" color-interpolation-filters="sRGB">
<feFlood flood-opacity="0" result="BackgroundImageFix"/>
<feBlend mode="normal" in="SourceGraphic" in2="BackgroundImageFix" result="shape"/>
<feGaussianBlur stdDeviation="2" result="effect1_foregroundBlur_12_470"/>
</filter>
<linearGradient id="paint0_linear_12_470" x1="9.20023" y1="-8.38827e-08" x2="47.4669" y2="67.2" gradientUnits="userSpaceOnUse">
<stop stop-color="#F0F6F9"/>
<stop offset="1" stop-color="#CDDFF2"/>
</linearGradient>
<linearGradient id="paint1_linear_12_470" x1="11.1421" y1="5" x2="11.1421" y2="26.55" gradientUnits="userSpaceOnUse">
<stop stop-color="white"/>
<stop offset="1" stop-color="white"/>
</linearGradient>
<linearGradient id="paint2_linear_12_470" x1="11.1421" y1="5" x2="11.1421" y2="26.55" gradientUnits="userSpaceOnUse">
<stop stop-color="white"/>
<stop offset="1" stop-color="white"/>
</linearGradient>
<linearGradient id="paint3_linear_12_470" x1="51.0368" y1="36" x2="51.0368" y2="49.55" gradientUnits="userSpaceOnUse">
<stop stop-color="white"/>
<stop offset="1" stop-color="white"/>
</linearGradient>
<linearGradient id="paint4_linear_12_470" x1="51.0368" y1="36" x2="51.0368" y2="49.55" gradientUnits="userSpaceOnUse">
<stop stop-color="white"/>
<stop offset="1" stop-color="white"/>
</linearGradient>
<clipPath id="clip0_12_470">
<rect width="65.1" height="70" fill="white"/>
</clipPath>
</defs>
</svg>
