<svg width="40" height="41" viewBox="0 0 40 41" fill="none" xmlns="http://www.w3.org/2000/svg">
<mask id="path-1-inside-1_30_112" fill="white">
<path d="M24.5309 3.30636C24.5724 3.15087 24.6441 3.00507 24.7419 2.8773C24.8398 2.74954 24.9619 2.64231 25.1012 2.56176C25.2405 2.4812 25.3943 2.4289 25.5538 2.40783C25.7134 2.38677 25.8755 2.39736 26.031 2.439C28.9885 3.21048 31.6869 4.7565 33.8482 6.91779C36.0095 9.07909 37.5556 11.7775 38.327 14.7351C38.3687 14.8905 38.3793 15.0526 38.3582 15.2122C38.3371 15.3717 38.2848 15.5256 38.2043 15.6649C38.1237 15.8042 38.0165 15.9263 37.8887 16.0241C37.761 16.1219 37.6152 16.1936 37.4597 16.2351C37.3565 16.2626 37.2501 16.2763 37.1433 16.2759C36.8736 16.2761 36.6113 16.1871 36.3972 16.0229C36.1832 15.8587 36.0294 15.6284 35.9597 15.3677C35.2973 12.8273 33.9695 10.5094 32.1131 8.65295C30.2567 6.79652 27.9388 5.46872 25.3983 4.80638C25.2428 4.76492 25.097 4.69322 24.9692 4.59538C24.8415 4.49754 24.7343 4.37547 24.6537 4.23615C24.5731 4.09684 24.5208 3.94302 24.4998 3.78348C24.4787 3.62393 24.4893 3.46181 24.5309 3.30636ZM23.7656 11.3371C26.7351 12.1289 28.6371 14.031 29.429 17.0004C29.4987 17.261 29.6525 17.4914 29.8665 17.6556C30.0806 17.8198 30.3429 17.9088 30.6127 17.9086C30.7194 17.909 30.8258 17.8952 30.929 17.8678C31.0845 17.8263 31.2303 17.7546 31.358 17.6568C31.4858 17.5589 31.593 17.4369 31.6736 17.2975C31.7541 17.1582 31.8064 17.0044 31.8275 16.8449C31.8486 16.6853 31.838 16.5232 31.7963 16.3677C30.7759 12.5493 28.2167 9.99012 24.3983 8.9697C24.2428 8.92815 24.0807 8.91764 23.9212 8.93875C23.7617 8.95985 23.6079 9.01217 23.4686 9.09271C23.1873 9.25537 22.9822 9.52312 22.8983 9.83705C22.8144 10.151 22.8586 10.4854 23.0213 10.7667C23.1839 11.048 23.4517 11.2532 23.7656 11.3371ZM39.9781 31.1332C39.6284 33.8011 38.3192 36.2503 36.2951 38.0231C34.271 39.7959 31.6706 40.771 28.98 40.766C13.0002 40.766 2.03517e-05 27.7659 2.03517e-05 11.7861C-0.00513432 9.09632 0.969052 6.49668 2.74061 4.47274C4.51217 2.4488 6.95993 1.13899 9.62667 0.78796C10.2406 0.713359 10.8621 0.839938 11.3979 1.14869C11.9337 1.45744 12.3549 1.9317 12.5981 2.50023L16.9043 12.1126C17.0944 12.5478 17.1731 13.0234 17.1332 13.4967C17.0933 13.9699 16.9361 14.4257 16.6757 14.8228C16.6495 14.8633 16.6209 14.9021 16.59 14.9392L12.29 20.0535C12.2639 20.1065 12.2503 20.1648 12.2503 20.2239C12.2503 20.283 12.2639 20.3413 12.29 20.3943C13.8533 23.5944 17.2084 26.925 20.4533 28.4863C20.5075 28.511 20.5667 28.5227 20.6262 28.5206C20.6857 28.5185 20.7439 28.5025 20.7962 28.474L25.835 24.1883C25.871 24.1569 25.9092 24.1283 25.9493 24.1025C26.3447 23.8389 26.7997 23.6781 27.2729 23.6346C27.7461 23.5911 28.2227 23.6664 28.6596 23.8536L38.3005 28.174C38.8615 28.4226 39.3275 28.8452 39.6296 29.3793C39.9318 29.9134 40.0539 30.5305 39.9781 31.1394V31.1332ZM37.5515 30.8312C37.5584 30.7459 37.5382 30.6605 37.4939 30.5873C37.4496 30.514 37.3833 30.4566 37.3046 30.423L27.6616 26.1026C27.6089 26.0822 27.5525 26.0735 27.4961 26.0771C27.4397 26.0806 27.3848 26.0962 27.3351 26.123L22.2983 30.4087C22.2615 30.4394 22.2227 30.4679 22.184 30.4945C21.7731 30.7684 21.2983 30.9312 20.8058 30.967C20.3132 31.0028 19.8199 30.9103 19.3737 30.6985C15.6267 28.8883 11.892 25.1883 10.0818 21.476C9.86887 21.0324 9.77409 20.5415 9.80663 20.0505C9.83917 19.5596 9.99791 19.0855 10.2675 18.6739C10.2938 18.633 10.3231 18.5941 10.3553 18.5576L14.6533 13.4432C14.6778 13.3898 14.6905 13.3316 14.6905 13.2728C14.6905 13.214 14.6778 13.1559 14.6533 13.1024L10.3553 3.48187C10.3269 3.40466 10.2759 3.33782 10.2088 3.29011C10.1418 3.24241 10.062 3.21606 9.97974 3.21452H9.9328C7.85714 3.49063 5.95295 4.51279 4.57578 6.09013C3.19862 7.66746 2.44264 9.69213 2.44903 11.7861C2.44903 26.4148 14.3512 38.317 28.98 38.317C31.0742 38.3233 33.0991 37.5671 34.6765 36.1895C36.2539 34.8119 37.2759 32.9072 37.5515 30.8312Z"/>
</mask>
<path d="M24.5309 3.30636C24.5724 3.15087 24.6441 3.00507 24.7419 2.8773C24.8398 2.74954 24.9619 2.64231 25.1012 2.56176C25.2405 2.4812 25.3943 2.4289 25.5538 2.40783C25.7134 2.38677 25.8755 2.39736 26.031 2.439C28.9885 3.21048 31.6869 4.7565 33.8482 6.91779C36.0095 9.07909 37.5556 11.7775 38.327 14.7351C38.3687 14.8905 38.3793 15.0526 38.3582 15.2122C38.3371 15.3717 38.2848 15.5256 38.2043 15.6649C38.1237 15.8042 38.0165 15.9263 37.8887 16.0241C37.761 16.1219 37.6152 16.1936 37.4597 16.2351C37.3565 16.2626 37.2501 16.2763 37.1433 16.2759C36.8736 16.2761 36.6113 16.1871 36.3972 16.0229C36.1832 15.8587 36.0294 15.6284 35.9597 15.3677C35.2973 12.8273 33.9695 10.5094 32.1131 8.65295C30.2567 6.79652 27.9388 5.46872 25.3983 4.80638C25.2428 4.76492 25.097 4.69322 24.9692 4.59538C24.8415 4.49754 24.7343 4.37547 24.6537 4.23615C24.5731 4.09684 24.5208 3.94302 24.4998 3.78348C24.4787 3.62393 24.4893 3.46181 24.5309 3.30636ZM23.7656 11.3371C26.7351 12.1289 28.6371 14.031 29.429 17.0004C29.4987 17.261 29.6525 17.4914 29.8665 17.6556C30.0806 17.8198 30.3429 17.9088 30.6127 17.9086C30.7194 17.909 30.8258 17.8952 30.929 17.8678C31.0845 17.8263 31.2303 17.7546 31.358 17.6568C31.4858 17.5589 31.593 17.4369 31.6736 17.2975C31.7541 17.1582 31.8064 17.0044 31.8275 16.8449C31.8486 16.6853 31.838 16.5232 31.7963 16.3677C30.7759 12.5493 28.2167 9.99012 24.3983 8.9697C24.2428 8.92815 24.0807 8.91764 23.9212 8.93875C23.7617 8.95985 23.6079 9.01217 23.4686 9.09271C23.1873 9.25537 22.9822 9.52312 22.8983 9.83705C22.8144 10.151 22.8586 10.4854 23.0213 10.7667C23.1839 11.048 23.4517 11.2532 23.7656 11.3371ZM39.9781 31.1332C39.6284 33.8011 38.3192 36.2503 36.2951 38.0231C34.271 39.7959 31.6706 40.771 28.98 40.766C13.0002 40.766 2.03517e-05 27.7659 2.03517e-05 11.7861C-0.00513432 9.09632 0.969052 6.49668 2.74061 4.47274C4.51217 2.4488 6.95993 1.13899 9.62667 0.78796C10.2406 0.713359 10.8621 0.839938 11.3979 1.14869C11.9337 1.45744 12.3549 1.9317 12.5981 2.50023L16.9043 12.1126C17.0944 12.5478 17.1731 13.0234 17.1332 13.4967C17.0933 13.9699 16.9361 14.4257 16.6757 14.8228C16.6495 14.8633 16.6209 14.9021 16.59 14.9392L12.29 20.0535C12.2639 20.1065 12.2503 20.1648 12.2503 20.2239C12.2503 20.283 12.2639 20.3413 12.29 20.3943C13.8533 23.5944 17.2084 26.925 20.4533 28.4863C20.5075 28.511 20.5667 28.5227 20.6262 28.5206C20.6857 28.5185 20.7439 28.5025 20.7962 28.474L25.835 24.1883C25.871 24.1569 25.9092 24.1283 25.9493 24.1025C26.3447 23.8389 26.7997 23.6781 27.2729 23.6346C27.7461 23.5911 28.2227 23.6664 28.6596 23.8536L38.3005 28.174C38.8615 28.4226 39.3275 28.8452 39.6296 29.3793C39.9318 29.9134 40.0539 30.5305 39.9781 31.1394V31.1332ZM37.5515 30.8312C37.5584 30.7459 37.5382 30.6605 37.4939 30.5873C37.4496 30.514 37.3833 30.4566 37.3046 30.423L27.6616 26.1026C27.6089 26.0822 27.5525 26.0735 27.4961 26.0771C27.4397 26.0806 27.3848 26.0962 27.3351 26.123L22.2983 30.4087C22.2615 30.4394 22.2227 30.4679 22.184 30.4945C21.7731 30.7684 21.2983 30.9312 20.8058 30.967C20.3132 31.0028 19.8199 30.9103 19.3737 30.6985C15.6267 28.8883 11.892 25.1883 10.0818 21.476C9.86887 21.0324 9.77409 20.5415 9.80663 20.0505C9.83917 19.5596 9.99791 19.0855 10.2675 18.6739C10.2938 18.633 10.3231 18.5941 10.3553 18.5576L14.6533 13.4432C14.6778 13.3898 14.6905 13.3316 14.6905 13.2728C14.6905 13.214 14.6778 13.1559 14.6533 13.1024L10.3553 3.48187C10.3269 3.40466 10.2759 3.33782 10.2088 3.29011C10.1418 3.24241 10.062 3.21606 9.97974 3.21452H9.9328C7.85714 3.49063 5.95295 4.51279 4.57578 6.09013C3.19862 7.66746 2.44264 9.69213 2.44903 11.7861C2.44903 26.4148 14.3512 38.317 28.98 38.317C31.0742 38.3233 33.0991 37.5671 34.6765 36.1895C36.2539 34.8119 37.2759 32.9072 37.5515 30.8312Z" fill="#555555"/>
<path d="M24.5309 3.30636L26.4628 3.82386L26.4634 3.82158L24.5309 3.30636ZM26.031 2.439L25.5134 4.37093L25.5262 4.37425L26.031 2.439ZM38.327 14.7351L36.3918 15.2399L36.3951 15.2526L38.327 14.7351ZM37.4597 16.2351L37.9743 18.1677L37.9749 18.1676L37.4597 16.2351ZM37.1433 16.2759L37.1506 14.2759L37.1421 14.2759L37.1433 16.2759ZM35.9597 15.3677L34.0243 15.8723L34.0275 15.8844L35.9597 15.3677ZM25.3983 4.80638L24.8831 6.73891L24.8937 6.74169L25.3983 4.80638ZM23.7656 11.3371L23.2493 13.2693L23.2503 13.2695L23.7656 11.3371ZM29.429 17.0004L27.4965 17.5157L27.4969 17.5171L29.429 17.0004ZM30.6127 17.9086L30.6199 15.9086L30.6114 15.9086L30.6127 17.9086ZM30.929 17.8678L31.4436 19.8004L31.4442 19.8003L30.929 17.8678ZM31.7963 16.3677L29.8641 16.8841L29.8645 16.8853L31.7963 16.3677ZM24.3983 8.9697L23.8819 10.9019L23.8819 10.9019L24.3983 8.9697ZM23.4686 9.09271L22.4675 7.36132L23.4686 9.09271ZM39.9781 31.1332H41.9781L37.995 30.8733L39.9781 31.1332ZM28.98 40.766L28.9837 38.766H28.98V40.766ZM2.03517e-05 11.7861H2.00002L2.00002 11.7822L2.03517e-05 11.7861ZM9.62667 0.78796L9.3854 -1.19743L9.37552 -1.19623L9.36566 -1.19493L9.62667 0.78796ZM12.5981 2.50023L10.7594 3.28705L10.766 3.30253L10.7729 3.31789L12.5981 2.50023ZM16.9043 12.1126L18.737 11.3118L18.7333 11.3034L18.7295 11.2949L16.9043 12.1126ZM16.6757 14.8228L15.003 13.7264L14.9984 13.7335L16.6757 14.8228ZM16.59 14.9392L18.1209 16.2263L18.1273 16.2185L16.59 14.9392ZM12.29 20.0535L10.7592 18.7664L10.603 18.9522L10.4957 19.1699L12.29 20.0535ZM12.2503 20.2239H10.2503H12.2503ZM12.29 20.3943L14.087 19.5164L14.0842 19.5107L12.29 20.3943ZM20.4533 28.4863L19.5862 30.2885L19.6048 30.2975L19.6236 30.306L20.4533 28.4863ZM20.7962 28.474L21.7537 30.2299L21.9348 30.1312L22.092 29.9975L20.7962 28.474ZM25.835 24.1883L27.1308 25.7117L27.1396 25.7043L27.1483 25.6967L25.835 24.1883ZM25.9493 24.1025L27.0297 25.7856L27.0443 25.7762L27.0588 25.7666L25.9493 24.1025ZM28.6596 23.8536L29.4775 22.0284L29.4624 22.0217L29.4473 22.0152L28.6596 23.8536ZM38.3005 28.174L37.4826 29.9992L37.4901 30.0025L38.3005 28.174ZM39.9781 31.1394H37.9781L41.9627 31.3866L39.9781 31.1394ZM37.5515 30.8312L39.5341 31.0944L39.541 31.0429L39.5451 30.9911L37.5515 30.8312ZM37.3046 30.423L36.4868 32.2482L36.5038 32.2558L36.521 32.2631L37.3046 30.423ZM27.6616 26.1026L28.4794 24.2774L28.431 24.2557L28.3816 24.2366L27.6616 26.1026ZM27.3351 26.123L26.3884 24.3612L26.201 24.4619L26.039 24.5998L27.3351 26.123ZM22.2983 30.4087L23.5786 31.9452L23.5865 31.9386L23.5943 31.932L22.2983 30.4087ZM22.184 30.4945L23.2936 32.1584L23.3035 32.1518L23.3133 32.1451L22.184 30.4945ZM19.3737 30.6985L18.5037 32.4994L18.5162 32.5054L19.3737 30.6985ZM10.0818 21.476L8.27873 22.3415L8.28412 22.3526L10.0818 21.476ZM10.2675 18.6739L11.9405 19.7698L11.9455 19.7621L11.9505 19.7544L10.2675 18.6739ZM10.3553 18.5576L11.8564 19.8791L11.8716 19.8619L11.8864 19.8443L10.3553 18.5576ZM14.6533 13.4432L16.1844 14.73L16.358 14.5234L16.4706 14.2782L14.6533 13.4432ZM14.6533 13.1024L12.8272 13.9182L12.8315 13.9278L12.8359 13.9374L14.6533 13.1024ZM10.3553 3.48187L8.47792 4.17152L8.50141 4.23547L8.5292 4.29767L10.3553 3.48187ZM9.97974 3.21452L10.0171 1.21487L9.99841 1.21452H9.97974V3.21452ZM9.9328 3.21452V1.21452H9.80036L9.66908 1.23199L9.9328 3.21452ZM2.44903 11.7861H4.44904L4.44902 11.78L2.44903 11.7861ZM28.98 38.317L28.986 36.317H28.98V38.317ZM26.4634 3.82158C26.4372 3.92006 26.3918 4.0124 26.3298 4.09331L23.1541 1.6613C22.8964 1.99774 22.7076 2.38167 22.5984 2.79114L26.4634 3.82158ZM26.3298 4.09331C26.2678 4.17423 26.1905 4.24213 26.1023 4.29315L24.1 0.830367C23.7332 1.04249 23.4117 1.32485 23.1541 1.6613L26.3298 4.09331ZM26.1023 4.29315C26.0141 4.34416 25.9167 4.37729 25.8156 4.39063L25.2921 0.42504C24.8719 0.480507 24.4669 0.618241 24.1 0.830367L26.1023 4.29315ZM25.8156 4.39063C25.7146 4.40397 25.6119 4.39726 25.5135 4.37089L26.5485 0.507114C26.1391 0.397463 25.7122 0.369574 25.2921 0.42504L25.8156 4.39063ZM25.5262 4.37425C28.1397 5.05598 30.5242 6.42214 32.434 8.33201L35.2625 5.50358C32.8497 3.09086 29.8374 1.36499 26.5358 0.503758L25.5262 4.37425ZM32.434 8.33201C34.3439 10.2419 35.7101 12.6264 36.3918 15.2399L40.2623 14.2303C39.4011 10.9286 37.6752 7.9163 35.2625 5.50358L32.434 8.33201ZM36.3951 15.2526C36.3688 15.1541 36.3621 15.0514 36.3754 14.9504L40.341 15.474C40.3965 15.0539 40.3686 14.6269 40.2589 14.2176L36.3951 15.2526ZM36.3754 14.9504C36.3887 14.8494 36.4219 14.752 36.4729 14.6637L39.9357 16.666C40.1478 16.2992 40.2855 15.8941 40.341 15.474L36.3754 14.9504ZM36.4729 14.6637C36.5239 14.5755 36.5918 14.4982 36.6727 14.4362L39.1047 17.612C39.4412 17.3543 39.7236 17.0329 39.9357 16.666L36.4729 14.6637ZM36.6727 14.4362C36.7536 14.3743 36.846 14.3289 36.9445 14.3026L37.9749 18.1676C38.3844 18.0584 38.7683 17.8696 39.1047 17.612L36.6727 14.4362ZM36.945 14.3024C37.0121 14.2846 37.0812 14.2757 37.1506 14.2759L37.1361 18.2759C37.4191 18.2769 37.7009 18.2406 37.9743 18.1677L36.945 14.3024ZM37.1421 14.2759C37.313 14.2758 37.4791 14.3321 37.6147 14.4361L35.1798 17.6097C35.7434 18.0421 36.4341 18.2763 37.1446 18.2759L37.1421 14.2759ZM37.6147 14.4361C37.7502 14.5401 37.8476 14.686 37.8918 14.8511L34.0275 15.8844C34.2111 16.5707 34.6161 17.1772 35.1798 17.6097L37.6147 14.4361ZM37.895 14.8632C37.1429 11.9786 35.6352 9.34666 33.5273 7.23874L30.6989 10.0672C32.3038 11.6721 33.4517 13.676 34.0244 15.8723L37.895 14.8632ZM33.5273 7.23874C31.4194 5.13082 28.7875 3.62313 25.9029 2.87107L24.8937 6.74169C27.09 7.3143 29.0939 8.46223 30.6989 10.0672L33.5273 7.23874ZM25.9135 2.87388C26.012 2.90013 26.1043 2.94554 26.1852 3.00751L23.7532 6.18325C24.0897 6.4409 24.4736 6.62971 24.8831 6.73888L25.9135 2.87388ZM26.1852 3.00751C26.2662 3.06948 26.3341 3.14679 26.3851 3.23501L22.9223 5.2373C23.1344 5.60414 23.4168 5.92559 23.7532 6.18325L26.1852 3.00751ZM26.3851 3.23501C26.4361 3.32324 26.4692 3.42066 26.4826 3.5217L22.517 4.04525C22.5724 4.46537 22.7102 4.87044 22.9223 5.2373L26.3851 3.23501ZM26.4826 3.5217C26.4959 3.62272 26.4892 3.7254 26.4628 3.82386L22.5991 2.78886C22.4894 3.19821 22.4615 3.62514 22.517 4.04525L26.4826 3.5217ZM23.2503 13.2695C25.5277 13.8768 26.8892 15.2384 27.4965 17.5157L31.3614 16.4851C30.385 12.8236 27.9424 10.381 24.281 9.4046L23.2503 13.2695ZM27.4969 17.5171C27.6804 18.2034 28.0854 18.8099 28.6491 19.2424L31.084 16.0688C31.2195 16.1728 31.3169 16.3187 31.3611 16.4837L27.4969 17.5171ZM28.6491 19.2424C29.2127 19.6748 29.9034 19.909 30.6139 19.9086L30.6114 15.9086C30.7823 15.9085 30.9484 15.9648 31.084 16.0688L28.6491 19.2424ZM30.6054 19.9086C30.8884 19.9096 31.1702 19.8732 31.4436 19.8004L30.4143 15.9351C30.4814 15.9173 30.5505 15.9083 30.6199 15.9086L30.6054 19.9086ZM31.4442 19.8003C31.8537 19.6911 32.2376 19.5023 32.5741 19.2446L30.142 16.0689C30.2229 16.0069 30.3153 15.9615 30.4138 15.9353L31.4442 19.8003ZM32.5741 19.2446C32.9105 18.987 33.1929 18.6655 33.405 18.2987L29.9422 16.2964C29.9932 16.2082 30.0611 16.1309 30.142 16.0689L32.5741 19.2446ZM33.405 18.2987C33.6171 17.9318 33.7548 17.5268 33.8103 17.1066L29.8447 16.5831C29.8581 16.4821 29.8912 16.3846 29.9422 16.2964L33.405 18.2987ZM33.8103 17.1066C33.8658 16.6865 33.8379 16.2596 33.7282 15.8502L29.8645 16.8853C29.8381 16.7868 29.8314 16.6841 29.8447 16.5831L33.8103 17.1066ZM33.7285 15.8514C32.5234 11.3418 29.4243 8.24264 24.9146 7.0375L23.8819 10.9019C27.0091 11.7376 29.0284 13.7569 29.8641 16.8841L33.7285 15.8514ZM24.9147 7.0375C24.5055 6.92815 24.0787 6.90047 23.6589 6.95603L24.1836 10.9215C24.0827 10.9348 23.9802 10.9282 23.8819 10.9019L24.9147 7.0375ZM23.6589 6.95603C23.239 7.01159 22.8342 7.14931 22.4675 7.36132L24.4698 10.8241C24.3817 10.875 24.2845 10.9081 24.1836 10.9215L23.6589 6.95603ZM22.4675 7.36132C21.727 7.7895 21.1869 8.4943 20.9661 9.32069L24.8305 10.3534C24.7774 10.5519 24.6477 10.7212 24.4698 10.8241L22.4675 7.36132ZM20.9661 9.32069C20.7452 10.1471 20.8617 11.0273 21.2899 11.7678L24.7527 9.76556C24.8555 9.94344 24.8835 10.1549 24.8305 10.3534L20.9661 9.32069ZM21.2899 11.7678C21.7181 12.5083 22.4229 13.0484 23.2493 13.2693L24.282 9.40488C24.4805 9.45793 24.6498 9.58767 24.7527 9.76556L21.2899 11.7678ZM37.995 30.8733C37.7085 33.0593 36.6358 35.0661 34.9774 36.5186L37.6129 39.5276C40.0026 37.4346 41.5483 34.5429 41.9611 31.3931L37.995 30.8733ZM34.9774 36.5186C33.3189 37.9712 31.1883 38.7701 28.9837 38.766L28.9763 42.766C32.153 42.7719 35.2232 41.6207 37.6129 39.5276L34.9774 36.5186ZM28.98 38.766C14.1048 38.766 2.00002 26.6613 2.00002 11.7861H-1.99998C-1.99998 28.8704 11.8956 42.766 28.98 42.766V38.766ZM2.00002 11.7822C1.99579 9.57837 2.794 7.44833 4.24554 5.79001L1.23568 3.15547C-0.855896 5.54502 -2.00606 8.61427 -1.99998 11.7899L2.00002 11.7822ZM4.24554 5.79001C5.69708 4.13168 7.70267 3.05847 9.88768 2.77086L9.36566 -1.19493C6.21719 -0.780499 3.32726 0.765924 1.23568 3.15547L4.24554 5.79001ZM9.86795 2.77335C10.0521 2.75097 10.2386 2.78895 10.3993 2.88158L12.3964 -0.584197C11.4856 -1.10907 10.429 -1.32426 9.3854 -1.19743L9.86795 2.77335ZM10.3993 2.88158C10.5601 2.9742 10.6864 3.11648 10.7594 3.28705L14.4369 1.71341C14.0233 0.746905 13.3073 -0.0593231 12.3964 -0.584197L10.3993 2.88158ZM10.7729 3.31789L15.0791 12.9303L18.7295 11.2949L14.4234 1.68256L10.7729 3.31789ZM15.0716 12.9133C15.1287 13.0439 15.1523 13.1866 15.1403 13.3286L19.1261 13.6647C19.194 12.8603 19.0602 12.0516 18.737 11.3118L15.0716 12.9133ZM15.1403 13.3286C15.1283 13.4705 15.0811 13.6073 15.003 13.7264L18.3484 15.9192C18.791 15.244 19.0583 14.4692 19.1261 13.6647L15.1403 13.3286ZM14.9984 13.7335C15.0151 13.7079 15.0332 13.6833 15.0527 13.6598L18.1273 16.2185C18.2085 16.1209 18.2839 16.0186 18.353 15.9122L14.9984 13.7335ZM15.0592 13.6521L10.7592 18.7664L13.8208 21.3406L18.1208 16.2262L15.0592 13.6521ZM10.4957 19.1699C10.3343 19.4978 10.2503 19.8584 10.2503 20.2239H14.2503C14.2503 20.4713 14.1935 20.7153 14.0842 20.9371L10.4957 19.1699ZM10.2503 20.2239C10.2503 20.5894 10.3343 20.9501 10.4957 21.2779L14.0842 19.5107C14.1935 19.7326 14.2503 19.9766 14.2503 20.2239H10.2503ZM10.4929 21.2722C12.255 24.8791 15.9393 28.5339 19.5862 30.2885L21.3205 26.684C18.4775 25.3162 15.4515 22.3096 14.087 19.5164L10.4929 21.2722ZM19.6236 30.306C19.9602 30.4595 20.3279 30.5325 20.6976 30.5193L20.5548 26.5219C20.8055 26.5129 21.0548 26.5624 21.2831 26.6665L19.6236 30.306ZM20.6976 30.5193C21.0673 30.5061 21.4288 30.4071 21.7537 30.2299L19.8387 26.7181C20.059 26.598 20.3042 26.5308 20.5548 26.5219L20.6976 30.5193ZM22.092 29.9975L27.1308 25.7117L24.5393 22.6648L19.5004 26.9506L22.092 29.9975ZM27.1483 25.6967C27.111 25.7292 27.0714 25.7589 27.0297 25.7856L24.8689 22.4195C24.7471 22.4977 24.631 22.5847 24.5218 22.6798L27.1483 25.6967ZM27.0588 25.7666C27.1774 25.6875 27.3139 25.6393 27.4559 25.6262L27.0899 21.643C26.2854 21.7169 25.5121 21.9903 24.8399 22.4385L27.0588 25.7666ZM27.4559 25.6262C27.5978 25.6132 27.7408 25.6358 27.8719 25.6919L29.4473 22.0152C28.7047 21.697 27.8944 21.5691 27.0899 21.643L27.4559 25.6262ZM27.8417 25.6787L37.4826 29.9991L39.1184 26.3489L29.4775 22.0284L27.8417 25.6787ZM37.4901 30.0025C37.6584 30.0771 37.7982 30.2039 37.8889 30.3641L41.3704 28.3945C40.8568 27.4866 40.0645 26.7682 39.1109 26.3456L37.4901 30.0025ZM37.8889 30.3641C37.9795 30.5243 38.0162 30.7094 37.9934 30.8921L41.9627 31.3866C42.0917 30.3515 41.884 29.3024 41.3704 28.3945L37.8889 30.3641ZM41.9781 31.1394V31.1332H37.9781V31.1394H41.9781ZM39.5451 30.9911C39.5855 30.4876 39.4666 29.9842 39.2051 29.552L35.7827 31.6226C35.6099 31.3369 35.5312 31.0041 35.5579 30.6713L39.5451 30.9911ZM39.2051 29.552C38.9436 29.1198 38.5529 28.7808 38.0882 28.5829L36.521 32.2631C36.2138 32.1323 35.9555 31.9082 35.7827 31.6226L39.2051 29.552ZM38.1223 28.5979L28.4794 24.2774L26.8438 27.9277L36.4868 32.2482L38.1223 28.5979ZM28.3816 24.2366C28.0599 24.1125 27.7153 24.0595 27.3713 24.081L27.6209 28.0732C27.3896 28.0876 27.1579 28.0519 26.9416 27.9685L28.3816 24.2366ZM27.3713 24.081C27.0273 24.1025 26.692 24.1981 26.3884 24.3612L28.2818 27.8847C28.0776 27.9944 27.8521 28.0587 27.6209 28.0732L27.3713 24.081ZM26.039 24.5998L21.0022 28.8855L23.5943 31.932L28.6311 27.6462L26.039 24.5998ZM21.0179 28.8723C21.0301 28.8621 21.0395 28.8549 21.0453 28.8506C21.0511 28.8462 21.0544 28.844 21.0546 28.8438L23.3133 32.1451C23.3901 32.0926 23.4818 32.0259 23.5786 31.9452L21.0179 28.8723ZM21.0744 28.8305C20.9511 28.9127 20.8087 28.9615 20.6609 28.9723L20.9506 32.9618C21.7879 32.9009 22.5951 32.6242 23.2936 32.1584L21.0744 28.8305ZM20.6609 28.9723C20.5131 28.983 20.3651 28.9552 20.2313 28.8917L18.5162 32.5054C19.2746 32.8653 20.1133 33.0226 20.9506 32.9618L20.6609 28.9723ZM20.2438 28.8977C16.8954 27.28 13.4902 23.9027 11.8794 20.5994L8.28412 22.3526C10.2938 26.4738 14.3581 30.4966 18.5037 32.4994L20.2438 28.8977ZM11.8848 20.6105C11.8209 20.4774 11.7925 20.3301 11.8022 20.1828L7.81101 19.9183C7.7557 20.7528 7.91681 21.5875 8.27876 22.3415L11.8848 20.6105ZM11.8022 20.1828C11.812 20.0355 11.8596 19.8933 11.9405 19.7698L8.59448 17.578C8.13619 18.2776 7.86632 19.0837 7.81101 19.9183L11.8022 20.1828ZM11.9505 19.7544C11.9223 19.7983 11.8909 19.84 11.8564 19.8791L8.85408 17.236C8.75535 17.3482 8.66524 17.4676 8.58451 17.5934L11.9505 19.7544ZM11.8864 19.8443L16.1844 14.73L13.1221 12.1565L8.82413 17.2708L11.8864 19.8443ZM16.4706 14.2782C16.6155 13.9628 16.6905 13.6199 16.6905 13.2728H12.6905C12.6905 13.0434 12.7401 12.8167 12.8359 12.6082L16.4706 14.2782ZM16.6905 13.2728C16.6905 12.9258 16.6155 12.5828 16.4706 12.2674L12.8359 13.9374C12.7401 13.7289 12.6905 13.5022 12.6905 13.2728H16.6905ZM16.4793 12.2866L12.1813 2.66607L8.5292 4.29767L12.8272 13.9182L16.4793 12.2866ZM12.2326 2.79222C12.0652 2.33668 11.7642 1.94233 11.3688 1.66085L9.04889 4.91937C8.78755 4.73331 8.58854 4.47264 8.47792 4.17152L12.2326 2.79222ZM11.3688 1.66085C10.9735 1.37938 10.5023 1.22393 10.0171 1.21487L9.94241 5.21417C9.62166 5.20818 9.31021 5.10543 9.04889 4.91937L11.3688 1.66085ZM9.97974 1.21452H9.9328V5.21452H9.97974V1.21452ZM9.66908 1.23199C7.11186 1.57215 4.76588 2.83146 3.06921 4.77474L6.08236 7.40551C7.14001 6.19412 8.60243 5.40911 10.1965 5.19706L9.66908 1.23199ZM3.06921 4.77474C1.37253 6.71803 0.441172 9.21243 0.44904 11.7922L4.44902 11.78C4.44412 10.1718 5.0247 8.6169 6.08236 7.40551L3.06921 4.77474ZM0.449031 11.7861C0.449031 27.5194 13.2467 40.317 28.98 40.317V36.317C15.4558 36.317 4.44903 25.3102 4.44903 11.7861H0.449031ZM28.9739 40.317C31.5541 40.3248 34.0488 39.3931 35.9921 37.6959L33.3609 34.6831C32.1495 35.7411 30.5944 36.3219 28.986 36.317L28.9739 40.317ZM35.9921 37.6959C37.9354 35.9987 39.1945 33.6521 39.5341 31.0944L35.5689 30.568C35.3572 32.1623 34.5724 33.6251 33.3609 34.6831L35.9921 37.6959Z" fill="#555555" mask="url(#path-1-inside-1_30_112)"/>
</svg>
