<svg width="70" height="70" viewBox="0 0 70 70" fill="none" xmlns="http://www.w3.org/2000/svg">
<path fill-rule="evenodd" clip-rule="evenodd" d="M53.7105 48.2702L68.9813 63.5595C69.6633 64.318 69.6297 65.4792 68.905 66.1969L66.2326 68.8725C65.8742 69.2343 65.3863 69.4378 64.8773 69.4378C64.3683 69.4378 63.8804 69.2343 63.522 68.8725L48.2512 53.5832C47.8288 53.16 47.4455 52.6995 47.1058 52.2072L44.2426 48.3849C39.505 52.1725 33.6219 54.2348 27.5592 54.233C15.0661 54.2764 4.21013 45.6481 1.41826 33.4563C-1.37361 21.2644 4.64375 8.76286 15.9079 3.35289C27.172 -2.05709 40.6767 1.06836 48.4268 10.8789C56.1768 20.6894 56.1039 34.5667 48.2512 44.295L52.0689 46.9324C52.6651 47.3145 53.2158 47.7633 53.7105 48.2702ZM8.47051 27.4768C8.47051 38.0319 17.0167 46.5884 27.5591 46.5884C32.6217 46.5884 37.4769 44.5749 41.0567 40.9908C44.6365 37.4067 46.6476 32.5456 46.6476 27.4768C46.6476 16.9218 38.1014 8.36528 27.5591 8.36528C17.0167 8.36528 8.47051 16.9218 8.47051 27.4768Z" fill="#07484A"/>
</svg>
