<svg width="65" height="42" viewBox="0 0 65 42" fill="none" xmlns="http://www.w3.org/2000/svg">
<mask id="path-1-outside-1_13_746" maskUnits="userSpaceOnUse" x="-1" y="-1" width="67" height="44" fill="black">
<rect fill="white" x="-1" y="-1" width="67" height="44"/>
<path d="M17.288 41.576C11.8267 41.576 7.73067 39.6987 5 35.944C2.312 32.1467 0.968 27.2613 0.968 21.288C0.968 17.1067 1.736 13.4587 3.272 10.344C4.808 7.18666 6.89867 4.776 9.544 3.112C12.1893 1.448 15.0907 0.615997 18.248 0.615997C23.7947 0.615997 27.848 2.408 30.408 5.992C32.968 9.53333 34.248 14.3973 34.248 20.584C34.248 24.7227 33.5013 28.392 32.008 31.592C30.5573 34.7493 28.5307 37.2027 25.928 38.952C23.368 40.7013 20.488 41.576 17.288 41.576ZM17.544 38.312C23.9013 38.312 27.08 32.616 27.08 21.224C27.08 15.6773 26.3547 11.4107 24.904 8.424C23.496 5.43733 21.1067 3.944 17.736 3.944C14.4507 3.944 12.0187 5.37333 10.44 8.232C8.86133 11.048 8.072 15.1013 8.072 20.392C8.072 25.8107 8.81867 30.1627 10.312 33.448C11.848 36.6907 14.2587 38.312 17.544 38.312ZM50.157 7.976C49.261 8.31733 47.853 8.72267 45.933 9.192C44.013 9.66133 42.4557 9.98133 41.261 10.152L40.621 6.568C42.797 6.09866 45.0157 5.30933 47.277 4.2C49.581 3.09067 51.501 1.87467 53.037 0.551998H53.101L57.005 1.192V37.288L64.941 37.864V41H41.901V37.864L50.157 37.288V7.976Z"/>
</mask>
<path d="M5 35.944L4.18373 36.5218L4.19126 36.5322L5 35.944ZM3.272 10.344L4.16888 10.7863L4.17124 10.7815L3.272 10.344ZM9.544 3.112L10.0765 3.95846H10.0765L9.544 3.112ZM30.408 5.992L29.5943 6.57324L29.5976 6.57784L30.408 5.992ZM32.008 31.592L31.1018 31.1691L31.0993 31.1745L32.008 31.592ZM25.928 38.952L25.3701 38.122L25.3638 38.1264L25.928 38.952ZM24.904 8.424L23.9994 8.85045L24.0045 8.8609L24.904 8.424ZM10.44 8.232L11.3123 8.72101L11.3154 8.71542L10.44 8.232ZM10.312 33.448L9.40163 33.8618L9.40489 33.869L9.40826 33.8761L10.312 33.448ZM17.288 40.576C12.0824 40.576 8.31641 38.8039 5.80874 35.3558L4.19126 36.5322C7.14492 40.5934 11.5709 42.576 17.288 42.576V40.576ZM5.81621 35.3662C3.27774 31.7802 1.968 27.1131 1.968 21.288H-0.0319998C-0.0319998 27.4096 1.34626 32.5132 4.1838 36.5218L5.81621 35.3662ZM1.968 21.288C1.968 17.2291 2.71318 13.7381 4.16887 10.7863L2.37513 9.9017C0.758824 13.1792 -0.0319998 16.9842 -0.0319998 21.288H1.968ZM4.17124 10.7815C5.63592 7.77071 7.6081 5.51114 10.0765 3.95846L9.01155 2.26554C6.18924 4.04086 3.98008 6.60262 2.37277 9.90653L4.17124 10.7815ZM10.0765 3.95846C12.5606 2.39586 15.277 1.616 18.248 1.616V-0.384003C14.9043 -0.384003 11.8181 0.500134 9.01155 2.26554L10.0765 3.95846ZM18.248 1.616C23.5652 1.616 27.2704 3.31986 29.5943 6.57323L31.2217 5.41076C28.4256 1.49613 24.0241 -0.384003 18.248 -0.384003V1.616ZM29.5976 6.57784C31.9926 9.89097 33.248 14.5231 33.248 20.584H35.248C35.248 14.2716 33.9434 9.17569 31.2184 5.40615L29.5976 6.57784ZM33.248 20.584C33.248 24.6015 32.5236 28.1224 31.1018 31.1691L32.9142 32.0149C34.4791 28.6616 35.248 24.8438 35.248 20.584H33.248ZM31.0993 31.1745C29.7169 34.1833 27.804 36.4862 25.3702 38.122L26.4858 39.782C29.2573 37.9192 31.3978 35.3154 32.9167 32.0095L31.0993 31.1745ZM25.3638 38.1264C22.9756 39.7583 20.2935 40.576 17.288 40.576V42.576C20.6825 42.576 23.7604 41.6444 26.4922 39.7776L25.3638 38.1264ZM17.544 39.312C19.2873 39.312 20.8604 38.9199 22.2288 38.1025C23.5959 37.2859 24.7041 36.0776 25.5692 34.5273C27.2826 31.457 28.08 26.9802 28.08 21.224H26.08C26.08 26.8598 25.2881 30.927 23.8228 33.5527C23.0986 34.8504 22.2201 35.7781 21.2032 36.3855C20.1876 36.9921 18.9794 37.312 17.544 37.312V39.312ZM28.08 21.224C28.08 15.6147 27.3504 11.172 25.8035 7.98709L24.0045 8.8609C25.3589 11.6494 26.08 15.7399 26.08 21.224H28.08ZM25.8085 7.99758C25.037 6.36109 23.9697 5.0808 22.586 4.216C21.2036 3.35201 19.5716 2.944 17.736 2.944V4.944C19.271 4.944 20.5191 5.28266 21.526 5.91199C22.5317 6.54053 23.363 7.50025 23.9995 8.85042L25.8085 7.99758ZM17.736 2.944C15.9448 2.944 14.3346 3.33499 12.9413 4.15387C11.5477 4.97293 10.4268 6.18733 9.56461 7.74858L11.3154 8.71542C12.0319 7.418 12.9163 6.4884 13.9547 5.87813C14.9934 5.26767 16.2418 4.944 17.736 4.944V2.944ZM9.56772 7.74299C7.86793 10.7751 7.072 15.0276 7.072 20.392H9.072C9.072 15.1751 9.85474 11.3209 11.3123 8.721L9.56772 7.74299ZM7.072 20.392C7.072 25.8883 7.82719 30.398 9.40163 33.8618L11.2224 33.0342C9.81014 29.9273 9.072 25.733 9.072 20.392H7.072ZM9.40826 33.8761C10.2353 35.622 11.3279 36.9936 12.7139 37.9258C14.1052 38.8615 15.7294 39.312 17.544 39.312V37.312C16.0732 37.312 14.8495 36.9518 13.8301 36.2662C12.8054 35.577 11.9247 34.5167 11.2157 33.0199L9.40826 33.8761ZM50.157 7.976H51.157V6.52494L49.801 7.04151L50.157 7.976ZM45.933 9.192L46.1705 10.1634L45.933 9.192ZM41.261 10.152L40.2766 10.3278L40.4463 11.2785L41.4024 11.1419L41.261 10.152ZM40.621 6.568L40.4102 5.59048L39.467 5.79391L39.6366 6.74379L40.621 6.568ZM47.277 4.2L46.8432 3.29897L46.8366 3.30221L47.277 4.2ZM53.037 0.551998V-0.448002H52.6658L52.3845 -0.20577L53.037 0.551998ZM53.101 0.551998L53.2628 -0.43483L53.1824 -0.448002H53.101V0.551998ZM57.005 1.192H58.005V0.342583L57.1668 0.20517L57.005 1.192ZM57.005 37.288H56.005V38.218L56.9326 38.2854L57.005 37.288ZM64.941 37.864H65.941V36.9339L65.0134 36.8666L64.941 37.864ZM64.941 41V42H65.941V41H64.941ZM41.901 41H40.901V42H41.901V41ZM41.901 37.864L41.8314 36.8664L40.901 36.9313V37.864H41.901ZM50.157 37.288L50.2266 38.2856L51.157 38.2207V37.288H50.157ZM49.801 7.04151C48.966 7.35962 47.6081 7.75308 45.6955 8.2206L46.1705 10.1634C48.0979 9.69225 49.556 9.27504 50.513 8.91049L49.801 7.04151ZM45.6955 8.2206C43.79 8.68639 42.2682 8.99796 41.1196 9.16205L41.4024 11.1419C42.6431 10.9647 44.236 10.6363 46.1705 10.1634L45.6955 8.2206ZM42.2454 9.97621L41.6054 6.39221L39.6366 6.74379L40.2766 10.3278L42.2454 9.97621ZM40.8318 7.54552C43.0969 7.05697 45.3925 6.23833 47.7174 5.09779L46.8366 3.30221C44.6389 4.38033 42.4971 5.14036 40.4102 5.59048L40.8318 7.54552ZM47.7108 5.101C50.0741 3.96311 52.0726 2.70215 53.6895 1.30977L52.3845 -0.20577C50.9294 1.04718 49.0879 2.21822 46.8432 3.299L47.7108 5.101ZM53.037 1.552H53.101V-0.448002H53.037V1.552ZM52.9392 1.53883L56.8432 2.17883L57.1668 0.20517L53.2628 -0.43483L52.9392 1.53883ZM56.005 1.192V37.288H58.005V1.192H56.005ZM56.9326 38.2854L64.8686 38.8614L65.0134 36.8666L57.0774 36.2906L56.9326 38.2854ZM63.941 37.864V41H65.941V37.864H63.941ZM64.941 40H41.901V42H64.941V40ZM42.901 41V37.864H40.901V41H42.901ZM41.9706 38.8616L50.2266 38.2856L50.0874 36.2904L41.8314 36.8664L41.9706 38.8616ZM51.157 37.288V7.976H49.157V37.288H51.157Z" fill="#020E35" mask="url(#path-1-outside-1_13_746)"/>
</svg>
