<svg width="75" height="42" viewBox="0 0 75 42" fill="none" xmlns="http://www.w3.org/2000/svg">
<mask id="path-1-outside-1_13_751" maskUnits="userSpaceOnUse" x="-1" y="-1" width="77" height="44" fill="black">
<rect fill="white" x="-1" y="-1" width="77" height="44"/>
<path d="M17.288 41.576C11.8267 41.576 7.73067 39.6987 5 35.944C2.312 32.1467 0.968 27.2613 0.968 21.288C0.968 17.1067 1.736 13.4587 3.272 10.344C4.808 7.18666 6.89867 4.776 9.544 3.112C12.1893 1.448 15.0907 0.615997 18.248 0.615997C23.7947 0.615997 27.848 2.408 30.408 5.992C32.968 9.53333 34.248 14.3973 34.248 20.584C34.248 24.7227 33.5013 28.392 32.008 31.592C30.5573 34.7493 28.5307 37.2027 25.928 38.952C23.368 40.7013 20.488 41.576 17.288 41.576ZM17.544 38.312C23.9013 38.312 27.08 32.616 27.08 21.224C27.08 15.6773 26.3547 11.4107 24.904 8.424C23.496 5.43733 21.1067 3.944 17.736 3.944C14.4507 3.944 12.0187 5.37333 10.44 8.232C8.86133 11.048 8.072 15.1013 8.072 20.392C8.072 25.8107 8.81867 30.1627 10.312 33.448C11.848 36.6907 14.2587 38.312 17.544 38.312ZM41.133 38.312C45.0583 36.0933 48.6637 33.5547 51.949 30.696C55.2343 27.7947 57.837 24.808 59.757 21.736C61.7197 18.664 62.701 15.7627 62.701 13.032C62.701 10.6853 61.997 8.82933 60.589 7.464C59.181 6.056 57.1757 5.352 54.573 5.352C52.141 5.352 50.0503 5.84266 48.301 6.824C46.5517 7.76266 44.9303 8.936 43.437 10.344L41.389 7.464C42.8823 5.71467 45.0157 4.136 47.789 2.728C50.5623 1.27733 53.5277 0.551998 56.685 0.551998C59.6717 0.551998 62.189 1.10667 64.237 2.216C66.285 3.28267 67.7997 4.69066 68.781 6.44C69.7623 8.18933 70.253 10.1093 70.253 12.2C70.253 16.424 68.2263 20.776 64.173 25.256C60.1197 29.6933 55.0423 33.6827 48.941 37.224L68.781 35.752L71.021 30.248L74.285 30.888L72.621 41H42.093L41.133 38.312Z"/>
</mask>
<path d="M5 35.944L4.18373 36.5218L4.19126 36.5322L5 35.944ZM3.272 10.344L4.16888 10.7863L4.17124 10.7815L3.272 10.344ZM9.544 3.112L10.0765 3.95846H10.0765L9.544 3.112ZM30.408 5.992L29.5943 6.57324L29.5976 6.57784L30.408 5.992ZM32.008 31.592L31.1018 31.1691L31.0993 31.1745L32.008 31.592ZM25.928 38.952L25.3701 38.122L25.3638 38.1264L25.928 38.952ZM24.904 8.424L23.9994 8.85045L24.0045 8.8609L24.904 8.424ZM10.44 8.232L11.3123 8.72101L11.3154 8.71542L10.44 8.232ZM10.312 33.448L9.40163 33.8618L9.40489 33.869L9.40826 33.8761L10.312 33.448ZM17.288 40.576C12.0824 40.576 8.31641 38.8039 5.80874 35.3558L4.19126 36.5322C7.14492 40.5934 11.5709 42.576 17.288 42.576V40.576ZM5.81621 35.3662C3.27774 31.7802 1.968 27.1131 1.968 21.288H-0.0319998C-0.0319998 27.4096 1.34626 32.5132 4.1838 36.5218L5.81621 35.3662ZM1.968 21.288C1.968 17.2291 2.71318 13.7381 4.16887 10.7863L2.37513 9.9017C0.758824 13.1792 -0.0319998 16.9842 -0.0319998 21.288H1.968ZM4.17124 10.7815C5.63592 7.77071 7.6081 5.51114 10.0765 3.95846L9.01155 2.26554C6.18924 4.04086 3.98008 6.60262 2.37277 9.90653L4.17124 10.7815ZM10.0765 3.95846C12.5606 2.39586 15.277 1.616 18.248 1.616V-0.384003C14.9043 -0.384003 11.8181 0.500134 9.01155 2.26554L10.0765 3.95846ZM18.248 1.616C23.5652 1.616 27.2704 3.31986 29.5943 6.57323L31.2217 5.41076C28.4256 1.49613 24.0241 -0.384003 18.248 -0.384003V1.616ZM29.5976 6.57784C31.9926 9.89097 33.248 14.5231 33.248 20.584H35.248C35.248 14.2716 33.9434 9.17569 31.2184 5.40615L29.5976 6.57784ZM33.248 20.584C33.248 24.6015 32.5236 28.1224 31.1018 31.1691L32.9142 32.0149C34.4791 28.6616 35.248 24.8438 35.248 20.584H33.248ZM31.0993 31.1745C29.7169 34.1833 27.804 36.4862 25.3702 38.122L26.4858 39.782C29.2573 37.9192 31.3978 35.3154 32.9167 32.0095L31.0993 31.1745ZM25.3638 38.1264C22.9756 39.7583 20.2935 40.576 17.288 40.576V42.576C20.6825 42.576 23.7604 41.6444 26.4922 39.7776L25.3638 38.1264ZM17.544 39.312C19.2873 39.312 20.8604 38.9199 22.2288 38.1025C23.5959 37.2859 24.7041 36.0776 25.5692 34.5273C27.2826 31.457 28.08 26.9802 28.08 21.224H26.08C26.08 26.8598 25.2881 30.927 23.8228 33.5527C23.0986 34.8504 22.2201 35.7781 21.2032 36.3855C20.1876 36.9921 18.9794 37.312 17.544 37.312V39.312ZM28.08 21.224C28.08 15.6147 27.3504 11.172 25.8035 7.98709L24.0045 8.8609C25.3589 11.6494 26.08 15.7399 26.08 21.224H28.08ZM25.8085 7.99758C25.037 6.36109 23.9697 5.0808 22.586 4.216C21.2036 3.35201 19.5716 2.944 17.736 2.944V4.944C19.271 4.944 20.5191 5.28266 21.526 5.91199C22.5317 6.54053 23.363 7.50025 23.9995 8.85042L25.8085 7.99758ZM17.736 2.944C15.9448 2.944 14.3346 3.33499 12.9413 4.15387C11.5477 4.97293 10.4268 6.18733 9.56461 7.74858L11.3154 8.71542C12.0319 7.418 12.9163 6.4884 13.9547 5.87813C14.9934 5.26767 16.2418 4.944 17.736 4.944V2.944ZM9.56772 7.74299C7.86793 10.7751 7.072 15.0276 7.072 20.392H9.072C9.072 15.1751 9.85474 11.3209 11.3123 8.721L9.56772 7.74299ZM7.072 20.392C7.072 25.8883 7.82719 30.398 9.40163 33.8618L11.2224 33.0342C9.81014 29.9273 9.072 25.733 9.072 20.392H7.072ZM9.40826 33.8761C10.2353 35.622 11.3279 36.9936 12.7139 37.9258C14.1052 38.8615 15.7294 39.312 17.544 39.312V37.312C16.0732 37.312 14.8495 36.9518 13.8301 36.2662C12.8054 35.577 11.9247 34.5167 11.2157 33.0199L9.40826 33.8761ZM41.133 38.312L40.6409 37.4414L39.9081 37.8556L40.1913 38.6483L41.133 38.312ZM51.949 30.696L52.6054 31.4504L52.6109 31.4456L51.949 30.696ZM59.757 21.736L58.9143 21.1976L58.909 21.206L59.757 21.736ZM60.589 7.464L59.8819 8.1711L59.8873 8.17654L59.8929 8.1819L60.589 7.464ZM48.301 6.824L48.7738 7.70516L48.7821 7.70073L48.7903 7.69614L48.301 6.824ZM43.437 10.344L42.622 10.9235L43.2875 11.8593L44.123 11.0716L43.437 10.344ZM41.389 7.464L40.6284 6.81473L40.1221 7.40792L40.574 8.04352L41.389 7.464ZM47.789 2.728L48.2417 3.61973L48.2525 3.6141L47.789 2.728ZM64.237 2.216L63.7607 3.09529L63.7679 3.09916L63.7751 3.10291L64.237 2.216ZM64.173 25.256L64.9113 25.9304L64.9145 25.9269L64.173 25.256ZM48.941 37.224L48.439 36.3591L49.015 38.2213L48.941 37.224ZM68.781 35.752L68.855 36.7493L69.4735 36.7034L69.7072 36.129L68.781 35.752ZM71.021 30.248L71.2134 29.2667L70.4052 29.1082L70.0948 29.871L71.021 30.248ZM74.285 30.888L75.2717 31.0504L75.4292 30.0933L74.4774 29.9067L74.285 30.888ZM72.621 41V42H73.4699L73.6077 41.1624L72.621 41ZM42.093 41L41.1513 41.3363L41.3883 42H42.093V41ZM41.6251 39.1826C45.6069 36.932 49.2676 34.3547 52.6054 31.4504L51.2926 29.9416C48.0597 32.7546 44.5098 35.2547 40.6409 37.4414L41.6251 39.1826ZM52.6109 31.4456C55.9539 28.4933 58.6245 25.4348 60.605 22.266L58.909 21.206C57.0495 24.1812 54.5147 27.096 51.2871 29.9464L52.6109 31.4456ZM60.5997 22.2744C62.6315 19.0941 63.701 16.0075 63.701 13.032H61.701C61.701 15.5179 60.8078 18.2339 58.9143 21.1976L60.5997 22.2744ZM63.701 13.032C63.701 10.472 62.9249 8.33621 61.2851 6.7461L59.8929 8.1819C61.0691 9.32246 61.701 10.8987 61.701 13.032H63.701ZM61.2961 6.75689C59.6481 5.10891 57.3562 4.352 54.573 4.352V6.352C56.9952 6.352 58.7139 7.00308 59.8819 8.1711L61.2961 6.75689ZM54.573 4.352C52.0059 4.352 49.7392 4.87059 47.8117 5.95185L48.7903 7.69614C50.3614 6.81474 52.2761 6.352 54.573 6.352V4.352ZM47.8282 5.94284C45.9987 6.92449 44.3061 8.15012 42.751 9.61641L44.123 11.0716C45.5545 9.72188 47.1046 8.60084 48.7738 7.70516L47.8282 5.94284ZM44.252 9.76447L42.204 6.88447L40.574 8.04352L42.622 10.9235L44.252 9.76447ZM42.1496 8.11326C43.5328 6.49286 45.547 4.98775 48.2417 3.61966L47.3363 1.83633C44.4843 3.28425 42.2318 4.93648 40.6284 6.81473L42.1496 8.11326ZM48.2525 3.6141C50.8815 2.23893 53.6876 1.552 56.685 1.552V-0.448002C53.3677 -0.448002 50.2432 0.315729 47.3255 1.8419L48.2525 3.6141ZM56.685 1.552C59.5511 1.552 61.8945 2.08443 63.7607 3.09529L64.7133 1.33671C62.4835 0.128897 59.7922 -0.448002 56.685 -0.448002V1.552ZM63.7751 3.10291C65.6773 4.09368 67.0364 5.37407 67.9089 6.92925L69.6531 5.95075C68.5629 4.00726 66.8927 2.47165 64.6989 1.32908L63.7751 3.10291ZM67.9089 6.92925C68.8027 8.52271 69.253 10.2731 69.253 12.2H71.253C71.253 9.94553 70.7219 7.85596 69.6531 5.95075L67.9089 6.92925ZM69.253 12.2C69.253 16.0874 67.3895 20.2105 63.4315 24.5851L64.9145 25.9269C69.0632 21.3415 71.253 16.7606 71.253 12.2H69.253ZM63.4347 24.5816C59.4607 28.932 54.4672 32.8602 48.439 36.3591L49.443 38.0889C55.6174 34.5051 60.7786 30.4546 64.9113 25.9304L63.4347 24.5816ZM49.015 38.2213L68.855 36.7493L68.707 34.7547L48.867 36.2267L49.015 38.2213ZM69.7072 36.129L71.9472 30.625L70.0948 29.871L67.8548 35.375L69.7072 36.129ZM70.8286 31.2293L74.0926 31.8693L74.4774 29.9067L71.2134 29.2667L70.8286 31.2293ZM73.2983 30.7256L71.6343 40.8376L73.6077 41.1624L75.2717 31.0504L73.2983 30.7256ZM72.621 40H42.093V42H72.621V40ZM43.0347 40.6637L42.0747 37.9757L40.1913 38.6483L41.1513 41.3363L43.0347 40.6637Z" fill="#020E35" mask="url(#path-1-outside-1_13_751)"/>
</svg>
