<svg width="71" height="52" viewBox="0 0 71 52" fill="none" xmlns="http://www.w3.org/2000/svg">
<mask id="path-1-outside-1_13_756" maskUnits="userSpaceOnUse" x="-1" y="-1" width="73" height="54" fill="black">
<rect fill="white" x="-1" y="-1" width="73" height="54"/>
<path d="M17.288 41.576C11.8267 41.576 7.73067 39.6987 5 35.944C2.312 32.1467 0.968 27.2613 0.968 21.288C0.968 17.1067 1.736 13.4587 3.272 10.344C4.808 7.18666 6.89867 4.776 9.544 3.112C12.1893 1.448 15.0907 0.615997 18.248 0.615997C23.7947 0.615997 27.848 2.408 30.408 5.992C32.968 9.53333 34.248 14.3973 34.248 20.584C34.248 24.7227 33.5013 28.392 32.008 31.592C30.5573 34.7493 28.5307 37.2027 25.928 38.952C23.368 40.7013 20.488 41.576 17.288 41.576ZM17.544 38.312C23.9013 38.312 27.08 32.616 27.08 21.224C27.08 15.6773 26.3547 11.4107 24.904 8.424C23.496 5.43733 21.1067 3.944 17.736 3.944C14.4507 3.944 12.0187 5.37333 10.44 8.232C8.86133 11.048 8.072 15.1013 8.072 20.392C8.072 25.8107 8.81867 30.1627 10.312 33.448C11.848 36.6907 14.2587 38.312 17.544 38.312ZM48.173 51.304C47.1917 51.304 46.1037 51.2187 44.909 51.048C43.7143 50.92 42.7117 50.7493 41.901 50.536V46.888C43.309 47.3147 44.9943 47.528 46.957 47.528C50.3277 47.528 53.229 46.9947 55.661 45.928C58.1357 44.8613 60.013 43.4107 61.293 41.576C62.6157 39.7413 63.277 37.736 63.277 35.56C63.277 32.6587 62.381 30.4187 60.589 28.84C58.8397 27.2187 56.1303 26.3867 52.461 26.344L50.477 26.856C49.069 27.2827 48.3863 27.4747 48.429 27.432L47.341 24.04C49.133 23.6987 50.8183 23.1867 52.397 22.504C55.0423 21.3947 57.1757 19.9227 58.797 18.088C60.4183 16.2107 61.229 14.2267 61.229 12.136C61.229 9.704 60.5037 7.93333 59.053 6.824C57.645 5.672 55.8317 5.096 53.613 5.096C51.693 5.096 49.837 5.43733 48.045 6.12C46.2957 6.80266 44.781 7.63466 43.501 8.616L41.773 5.736C42.9677 4.54133 44.8663 3.38933 47.469 2.28C50.1143 1.128 52.8023 0.551998 55.533 0.551998C59.4157 0.551998 62.5517 1.40533 64.941 3.112C67.3303 4.776 68.525 7.336 68.525 10.792C68.525 13.8213 67.3303 16.5733 64.941 19.048C62.5517 21.5227 59.7143 23.336 56.429 24.488C56.8557 24.4453 57.453 24.424 58.221 24.424C60.7383 24.424 62.957 24.8933 64.877 25.832C66.797 26.7707 68.269 28.0507 69.293 29.672C70.3597 31.2507 70.893 33.0427 70.893 35.048C70.893 38.1627 69.9543 40.9573 68.077 43.432C66.1997 45.9067 63.533 47.8267 60.077 49.192C56.6637 50.6 52.6957 51.304 48.173 51.304Z"/>
</mask>
<path d="M5 35.944L4.18373 36.5218L4.19126 36.5322L5 35.944ZM3.272 10.344L4.16888 10.7863L4.17124 10.7815L3.272 10.344ZM9.544 3.112L10.0765 3.95846H10.0765L9.544 3.112ZM30.408 5.992L29.5943 6.57324L29.5976 6.57784L30.408 5.992ZM32.008 31.592L31.1018 31.1691L31.0993 31.1745L32.008 31.592ZM25.928 38.952L25.3701 38.122L25.3638 38.1264L25.928 38.952ZM24.904 8.424L23.9994 8.85045L24.0045 8.8609L24.904 8.424ZM10.44 8.232L11.3123 8.72101L11.3154 8.71542L10.44 8.232ZM10.312 33.448L9.40163 33.8618L9.40489 33.869L9.40826 33.8761L10.312 33.448ZM17.288 40.576C12.0824 40.576 8.31641 38.8039 5.80874 35.3558L4.19126 36.5322C7.14492 40.5934 11.5709 42.576 17.288 42.576V40.576ZM5.81621 35.3662C3.27774 31.7802 1.968 27.1131 1.968 21.288H-0.0319998C-0.0319998 27.4096 1.34626 32.5132 4.1838 36.5218L5.81621 35.3662ZM1.968 21.288C1.968 17.2291 2.71318 13.7381 4.16887 10.7863L2.37513 9.9017C0.758824 13.1792 -0.0319998 16.9842 -0.0319998 21.288H1.968ZM4.17124 10.7815C5.63592 7.77071 7.6081 5.51114 10.0765 3.95846L9.01155 2.26554C6.18924 4.04086 3.98008 6.60262 2.37277 9.90653L4.17124 10.7815ZM10.0765 3.95846C12.5606 2.39586 15.277 1.616 18.248 1.616V-0.384003C14.9043 -0.384003 11.8181 0.500134 9.01155 2.26554L10.0765 3.95846ZM18.248 1.616C23.5652 1.616 27.2704 3.31986 29.5943 6.57323L31.2217 5.41076C28.4256 1.49613 24.0241 -0.384003 18.248 -0.384003V1.616ZM29.5976 6.57784C31.9926 9.89097 33.248 14.5231 33.248 20.584H35.248C35.248 14.2716 33.9434 9.17569 31.2184 5.40615L29.5976 6.57784ZM33.248 20.584C33.248 24.6015 32.5236 28.1224 31.1018 31.1691L32.9142 32.0149C34.4791 28.6616 35.248 24.8438 35.248 20.584H33.248ZM31.0993 31.1745C29.7169 34.1833 27.804 36.4862 25.3702 38.122L26.4858 39.782C29.2573 37.9192 31.3978 35.3154 32.9167 32.0095L31.0993 31.1745ZM25.3638 38.1264C22.9756 39.7583 20.2935 40.576 17.288 40.576V42.576C20.6825 42.576 23.7604 41.6444 26.4922 39.7776L25.3638 38.1264ZM17.544 39.312C19.2873 39.312 20.8604 38.9199 22.2288 38.1025C23.5959 37.2859 24.7041 36.0776 25.5692 34.5273C27.2826 31.457 28.08 26.9802 28.08 21.224H26.08C26.08 26.8598 25.2881 30.927 23.8228 33.5527C23.0986 34.8504 22.2201 35.7781 21.2032 36.3855C20.1876 36.9921 18.9794 37.312 17.544 37.312V39.312ZM28.08 21.224C28.08 15.6147 27.3504 11.172 25.8035 7.98709L24.0045 8.8609C25.3589 11.6494 26.08 15.7399 26.08 21.224H28.08ZM25.8085 7.99758C25.037 6.36109 23.9697 5.0808 22.586 4.216C21.2036 3.35201 19.5716 2.944 17.736 2.944V4.944C19.271 4.944 20.5191 5.28266 21.526 5.91199C22.5317 6.54053 23.363 7.50025 23.9995 8.85042L25.8085 7.99758ZM17.736 2.944C15.9448 2.944 14.3346 3.33499 12.9413 4.15387C11.5477 4.97293 10.4268 6.18733 9.56461 7.74858L11.3154 8.71542C12.0319 7.418 12.9163 6.4884 13.9547 5.87813C14.9934 5.26767 16.2418 4.944 17.736 4.944V2.944ZM9.56772 7.74299C7.86793 10.7751 7.072 15.0276 7.072 20.392H9.072C9.072 15.1751 9.85474 11.3209 11.3123 8.721L9.56772 7.74299ZM7.072 20.392C7.072 25.8883 7.82719 30.398 9.40163 33.8618L11.2224 33.0342C9.81014 29.9273 9.072 25.733 9.072 20.392H7.072ZM9.40826 33.8761C10.2353 35.622 11.3279 36.9936 12.7139 37.9258C14.1052 38.8615 15.7294 39.312 17.544 39.312V37.312C16.0732 37.312 14.8495 36.9518 13.8301 36.2662C12.8054 35.577 11.9247 34.5167 11.2157 33.0199L9.40826 33.8761ZM44.909 51.048L45.0504 50.0581L45.033 50.0556L45.0155 50.0537L44.909 51.048ZM41.901 50.536H40.901V51.3069L41.6465 51.5031L41.901 50.536ZM41.901 46.888L42.191 45.931L40.901 45.5401V46.888H41.901ZM55.661 45.928L55.2652 45.0097L55.2593 45.0122L55.661 45.928ZM61.293 41.576L60.4818 40.9912L60.4773 40.9975L60.4729 41.0038L61.293 41.576ZM60.589 28.84L59.9092 29.5734L59.9185 29.582L59.928 29.5904L60.589 28.84ZM52.461 26.344L52.4726 25.3441L52.3398 25.3425L52.2111 25.3757L52.461 26.344ZM50.477 26.856L50.2271 25.8877L50.2069 25.8929L50.187 25.899L50.477 26.856ZM48.429 27.432L49.1361 28.1391L49.5676 27.7076L49.3812 27.1266L48.429 27.432ZM47.341 24.04L47.1539 23.0577L46.0436 23.2691L46.3888 24.3454L47.341 24.04ZM52.397 22.504L52.0103 21.5817L52.0001 21.5861L52.397 22.504ZM58.797 18.088L59.5464 18.7502L59.5538 18.7416L58.797 18.088ZM59.053 6.824L58.4198 7.59796L58.4325 7.60837L58.4456 7.61835L59.053 6.824ZM48.045 6.12L47.689 5.18548L47.6815 5.18842L48.045 6.12ZM43.501 8.616L42.6435 9.13049L43.2201 10.0914L44.1094 9.4096L43.501 8.616ZM41.773 5.736L41.0659 5.02889L40.5138 5.58099L40.9155 6.2505L41.773 5.736ZM47.469 2.28L47.8611 3.19995L47.8683 3.19683L47.469 2.28ZM64.941 3.112L64.3597 3.92579L64.3695 3.93261L64.941 3.112ZM64.941 19.048L65.6604 19.7426L64.941 19.048ZM56.429 24.488L56.0981 23.5443L56.5285 25.483L56.429 24.488ZM64.877 25.832L65.3162 24.9336L64.877 25.832ZM69.293 29.672L68.4475 30.206L68.4558 30.2191L68.4644 30.2319L69.293 29.672ZM68.077 43.432L68.8737 44.0364L68.077 43.432ZM60.077 49.192L59.7096 48.2619L59.7026 48.2647L59.6957 48.2676L60.077 49.192ZM48.173 50.304C47.2483 50.304 46.2084 50.2235 45.0504 50.0581L44.7676 52.0379C45.9989 52.2139 47.1351 52.304 48.173 52.304V50.304ZM45.0155 50.0537C43.8514 49.929 42.9018 49.7653 42.1555 49.5689L41.6465 51.5031C42.5216 51.7334 43.5773 51.911 44.8025 52.0423L45.0155 50.0537ZM42.901 50.536V46.888H40.901V50.536H42.901ZM41.611 47.845C43.1384 48.3079 44.9267 48.528 46.957 48.528V46.528C45.062 46.528 43.4796 46.3214 42.191 45.931L41.611 47.845ZM46.957 48.528C50.43 48.528 53.4748 47.9788 56.0627 46.8438L55.2593 45.0122C52.9832 46.0105 50.2253 46.528 46.957 46.528V48.528ZM56.0568 46.8463C58.6672 45.7212 60.7067 44.1641 62.1131 42.1482L60.4729 41.0038C59.3193 42.6572 57.6041 44.0015 55.2652 45.0097L56.0568 46.8463ZM62.1042 42.1608C63.5444 40.163 64.277 37.9546 64.277 35.56H62.277C62.277 37.5174 61.6869 39.3197 60.4818 40.9912L62.1042 42.1608ZM64.277 35.56C64.277 32.4386 63.3033 29.8984 61.25 28.0896L59.928 29.5904C61.4587 30.9389 62.277 32.8787 62.277 35.56H64.277ZM61.2688 28.1066C59.2611 26.2458 56.2612 25.3881 52.4726 25.3441L52.4494 27.3439C55.9994 27.3852 58.4182 28.1915 59.9092 29.5734L61.2688 28.1066ZM52.2111 25.3757L50.2271 25.8877L50.7269 27.8243L52.7109 27.3123L52.2111 25.3757ZM50.187 25.899C49.4841 26.112 48.9694 26.2642 48.6383 26.3573C48.4695 26.4048 48.3624 26.4329 48.3058 26.4462C48.2668 26.4553 48.2874 26.4488 48.3324 26.4436C48.3468 26.4419 48.3792 26.4385 48.4218 26.4379C48.4465 26.4376 48.5589 26.4353 48.6971 26.4737C48.7613 26.4915 49.3586 26.6679 49.4226 27.3405C49.4489 27.6163 49.3556 27.8243 49.2978 27.9264C49.2377 28.0325 49.1715 28.1037 49.1361 28.1391L47.7219 26.7249C47.6852 26.7616 47.6179 26.8341 47.5573 26.9412C47.4989 27.0444 47.4053 27.2535 47.4316 27.5301C47.4958 28.2044 48.0947 28.3821 48.1619 28.4008C48.3031 28.44 48.4199 28.4381 48.4504 28.4377C48.4989 28.437 48.5385 28.4331 48.5616 28.4304C48.6413 28.4212 48.7192 28.4034 48.7602 28.3938C48.8636 28.3697 49.0072 28.3312 49.1797 28.2826C49.5312 28.1838 50.0619 28.0267 50.767 27.813L50.187 25.899ZM49.3812 27.1266L48.2932 23.7346L46.3888 24.3454L47.4768 27.7374L49.3812 27.1266ZM47.5281 25.0223C49.3879 24.6681 51.1439 24.1354 52.7939 23.4219L52.0001 21.5861C50.4927 22.238 48.8781 22.7292 47.1539 23.0577L47.5281 25.0223ZM52.7837 23.4262C55.5443 22.2686 57.8095 20.7155 59.5463 18.7502L58.0477 17.4258C56.5418 19.1298 54.5404 20.5208 52.0103 21.5818L52.7837 23.4262ZM59.5538 18.7416C61.3013 16.7183 62.229 14.5099 62.229 12.136H60.229C60.229 13.9435 59.5354 15.7031 58.0402 17.4344L59.5538 18.7416ZM62.229 12.136C62.229 9.50424 61.4355 7.38703 59.6604 6.02964L58.4456 7.61835C59.5718 8.47963 60.229 9.90376 60.229 12.136H62.229ZM59.6862 6.05004C58.0628 4.72179 56.0101 4.096 53.613 4.096V6.096C55.6533 6.096 57.2272 6.62221 58.4198 7.59796L59.6862 6.05004ZM53.613 4.096C51.5715 4.096 49.5948 4.45948 47.689 5.18551L48.401 7.05449C50.0792 6.41518 51.8145 6.096 53.613 6.096V4.096ZM47.6815 5.18842C45.8584 5.89984 44.2584 6.77527 42.8926 7.82239L44.1094 9.4096C45.3036 8.49405 46.7329 7.70548 48.4085 7.05158L47.6815 5.18842ZM44.3585 8.1015L42.6305 5.2215L40.9155 6.2505L42.6435 9.13049L44.3585 8.1015ZM42.4801 6.44311C43.5434 5.3798 45.3075 4.28836 47.8611 3.19992L47.0769 1.36007C44.4252 2.4903 42.3919 3.70286 41.0659 5.02889L42.4801 6.44311ZM47.8683 3.19683C50.3949 2.09653 52.9474 1.552 55.533 1.552V-0.448002C52.6572 -0.448002 49.8338 0.15947 47.0697 1.36316L47.8683 3.19683ZM55.533 1.552C59.2738 1.552 62.1871 2.37386 64.3598 3.92573L65.5222 2.29827C62.9162 0.436802 59.5576 -0.448002 55.533 -0.448002V1.552ZM64.3695 3.93261C66.4377 5.37294 67.525 7.59322 67.525 10.792H69.525C69.525 7.07878 68.223 4.17906 65.5125 2.29139L64.3695 3.93261ZM67.525 10.792C67.525 13.5265 66.4573 16.0378 64.2216 18.3534L65.6604 19.7426C68.2033 17.1089 69.525 14.1162 69.525 10.792H67.525ZM64.2216 18.3534C61.9419 20.7145 59.2381 22.4433 56.0981 23.5443L56.7599 25.4317C60.1905 24.2287 63.1614 22.3308 65.6604 19.7426L64.2216 18.3534ZM56.5285 25.483C56.906 25.4453 57.4647 25.424 58.221 25.424V23.424C57.4413 23.424 56.8053 23.4454 56.3295 23.493L56.5285 25.483ZM58.221 25.424C60.613 25.424 62.6768 25.8695 64.4378 26.7304L65.3162 24.9336C63.2372 23.9172 60.8637 23.424 58.221 23.424V25.424ZM64.4378 26.7304C66.2108 27.5972 67.5336 28.7589 68.4475 30.206L70.1385 29.138C69.0044 27.3424 67.3832 25.9441 65.3162 24.9336L64.4378 26.7304ZM68.4644 30.2319C69.4133 31.6362 69.893 33.2311 69.893 35.048H71.893C71.893 32.8542 71.306 30.8651 70.1216 29.1121L68.4644 30.2319ZM69.893 35.048C69.893 37.9451 69.0253 40.5273 67.2803 42.8276L68.8737 44.0364C70.8833 41.3873 71.893 38.3803 71.893 35.048H69.893ZM67.2803 42.8276C65.5336 45.1302 63.029 46.9506 59.7096 48.2619L60.4444 50.1221C64.037 48.7028 66.8658 46.6832 68.8737 44.0364L67.2803 42.8276ZM59.6957 48.2676C56.4272 49.6158 52.5934 50.304 48.173 50.304V52.304C52.7979 52.304 56.9002 51.5842 60.4583 50.1164L59.6957 48.2676Z" fill="#020E35" mask="url(#path-1-outside-1_13_756)"/>
</svg>
