<svg width="79" height="55" viewBox="0 0 79 55" fill="none" xmlns="http://www.w3.org/2000/svg">
<mask id="path-1-outside-1_13_730" maskUnits="userSpaceOnUse" x="-1" y="-1" width="81" height="57" fill="black">
<rect fill="white" x="-1" y="-1" width="81" height="57"/>
<path d="M17.288 44.576C11.8267 44.576 7.73067 42.6987 5 38.944C2.312 35.1467 0.968 30.2613 0.968 24.288C0.968 20.1067 1.736 16.4587 3.272 13.344C4.808 10.1867 6.89867 7.776 9.544 6.112C12.1893 4.448 15.0907 3.616 18.248 3.616C23.7947 3.616 27.848 5.408 30.408 8.992C32.968 12.5333 34.248 17.3973 34.248 23.584C34.248 27.7227 33.5013 31.392 32.008 34.592C30.5573 37.7493 28.5307 40.2027 25.928 41.952C23.368 43.7013 20.488 44.576 17.288 44.576ZM17.544 41.312C23.9013 41.312 27.08 35.616 27.08 24.224C27.08 18.6773 26.3547 14.4107 24.904 11.424C23.496 8.43733 21.1067 6.944 17.736 6.944C14.4507 6.944 12.0187 8.37333 10.44 11.232C8.86133 14.048 8.072 18.1013 8.072 23.392C8.072 28.8107 8.81867 33.1627 10.312 36.448C11.848 39.6907 14.2587 41.312 17.544 41.312ZM63.405 44H42.157L40.493 41.12C43.0103 36.3413 46.1037 30.0267 49.773 22.176C53.4423 14.2827 56.7277 7.05067 59.629 0.48H61.293L66.413 3.232L49.133 36.512L46.573 40.416L63.405 39.52L63.661 27.04L69.101 26.592V39.2L78.125 38.752V44H69.101V54.304H63.405V44Z"/>
</mask>
<path d="M5 38.944L4.18373 39.5218L4.19126 39.5322L5 38.944ZM3.272 13.344L4.16888 13.7863L4.17124 13.7815L3.272 13.344ZM9.544 6.112L10.0765 6.95846H10.0765L9.544 6.112ZM30.408 8.992L29.5943 9.57324L29.5976 9.57784L30.408 8.992ZM32.008 34.592L31.1018 34.1691L31.0993 34.1745L32.008 34.592ZM25.928 41.952L25.3701 41.122L25.3638 41.1264L25.928 41.952ZM24.904 11.424L23.9994 11.8504L24.0045 11.8609L24.904 11.424ZM10.44 11.232L11.3123 11.721L11.3154 11.7154L10.44 11.232ZM10.312 36.448L9.40163 36.8618L9.40489 36.869L9.40826 36.8761L10.312 36.448ZM17.288 43.576C12.0824 43.576 8.31641 41.8039 5.80874 38.3558L4.19126 39.5322C7.14492 43.5934 11.5709 45.576 17.288 45.576V43.576ZM5.81621 38.3662C3.27774 34.7802 1.968 30.1131 1.968 24.288H-0.0319998C-0.0319998 30.4096 1.34626 35.5132 4.1838 39.5218L5.81621 38.3662ZM1.968 24.288C1.968 20.2291 2.71318 16.7381 4.16887 13.7863L2.37513 12.9017C0.758824 16.1792 -0.0319998 19.9842 -0.0319998 24.288H1.968ZM4.17124 13.7815C5.63592 10.7707 7.6081 8.51114 10.0765 6.95846L9.01155 5.26554C6.18924 7.04086 3.98008 9.60262 2.37277 12.9065L4.17124 13.7815ZM10.0765 6.95846C12.5606 5.39586 15.277 4.616 18.248 4.616V2.616C14.9043 2.616 11.8181 3.50013 9.01155 5.26554L10.0765 6.95846ZM18.248 4.616C23.5652 4.616 27.2704 6.31986 29.5943 9.57323L31.2217 8.41076C28.4256 4.49613 24.0241 2.616 18.248 2.616V4.616ZM29.5976 9.57784C31.9926 12.891 33.248 17.5231 33.248 23.584H35.248C35.248 17.2716 33.9434 12.1757 31.2184 8.40615L29.5976 9.57784ZM33.248 23.584C33.248 27.6015 32.5236 31.1224 31.1018 34.1691L32.9142 35.0149C34.4791 31.6616 35.248 27.8438 35.248 23.584H33.248ZM31.0993 34.1745C29.7169 37.1833 27.804 39.4862 25.3702 41.122L26.4858 42.782C29.2573 40.9192 31.3978 38.3154 32.9167 35.0095L31.0993 34.1745ZM25.3638 41.1264C22.9756 42.7583 20.2935 43.576 17.288 43.576V45.576C20.6825 45.576 23.7604 44.6444 26.4922 42.7776L25.3638 41.1264ZM17.544 42.312C19.2873 42.312 20.8604 41.9199 22.2288 41.1025C23.5959 40.2859 24.7041 39.0776 25.5692 37.5273C27.2826 34.457 28.08 29.9802 28.08 24.224H26.08C26.08 29.8598 25.2881 33.927 23.8228 36.5527C23.0986 37.8504 22.2201 38.7781 21.2032 39.3855C20.1876 39.9921 18.9794 40.312 17.544 40.312V42.312ZM28.08 24.224C28.08 18.6147 27.3504 14.172 25.8035 10.9871L24.0045 11.8609C25.3589 14.6494 26.08 18.7399 26.08 24.224H28.08ZM25.8085 10.9976C25.037 9.36109 23.9697 8.0808 22.586 7.216C21.2036 6.35201 19.5716 5.944 17.736 5.944V7.944C19.271 7.944 20.5191 8.28266 21.526 8.91199C22.5317 9.54053 23.363 10.5002 23.9995 11.8504L25.8085 10.9976ZM17.736 5.944C15.9448 5.944 14.3346 6.33499 12.9413 7.15387C11.5477 7.97293 10.4268 9.18733 9.56461 10.7486L11.3154 11.7154C12.0319 10.418 12.9163 9.4884 13.9547 8.87813C14.9934 8.26767 16.2418 7.944 17.736 7.944V5.944ZM9.56772 10.743C7.86793 13.7751 7.072 18.0276 7.072 23.392H9.072C9.072 18.1751 9.85474 14.3209 11.3123 11.721L9.56772 10.743ZM7.072 23.392C7.072 28.8883 7.82719 33.398 9.40163 36.8618L11.2224 36.0342C9.81014 32.9273 9.072 28.733 9.072 23.392H7.072ZM9.40826 36.8761C10.2353 38.622 11.3279 39.9936 12.7139 40.9258C14.1052 41.8615 15.7294 42.312 17.544 42.312V40.312C16.0732 40.312 14.8495 39.9518 13.8301 39.2662C12.8054 38.577 11.9247 37.5167 11.2157 36.0199L9.40826 36.8761ZM63.405 44H64.405V43H63.405V44ZM42.157 44L41.2911 44.5003L41.5799 45H42.157V44ZM40.493 41.12L39.6083 40.6539L39.351 41.1423L39.6271 41.6203L40.493 41.12ZM49.773 22.176L50.6789 22.5994L50.6798 22.5975L49.773 22.176ZM59.629 0.48V-0.52H58.9774L58.7142 0.076067L59.629 0.48ZM61.293 0.48L61.7664 -0.400825L61.5447 -0.52H61.293V0.48ZM66.413 3.232L67.3005 3.69281L67.7548 2.8179L66.8864 2.35117L66.413 3.232ZM49.133 36.512L49.9692 37.0604L49.9971 37.0179L50.0205 36.9728L49.133 36.512ZM46.573 40.416L45.7368 39.8676L44.6535 41.5196L46.6262 41.4146L46.573 40.416ZM63.405 39.52L63.4582 40.5186L64.3857 40.4692L64.4048 39.5405L63.405 39.52ZM63.661 27.04L63.5789 26.0434L62.6797 26.1174L62.6612 27.0195L63.661 27.04ZM69.101 26.592H70.101V25.5063L69.0189 25.5954L69.101 26.592ZM69.101 39.2H68.101V40.2509L69.1506 40.1988L69.101 39.2ZM78.125 38.752H79.125V37.7011L78.0754 37.7532L78.125 38.752ZM78.125 44V45H79.125V44H78.125ZM69.101 44V43H68.101V44H69.101ZM69.101 54.304V55.304H70.101V54.304H69.101ZM63.405 54.304H62.405V55.304H63.405V54.304ZM63.405 43H42.157V45H63.405V43ZM43.0229 43.4997L41.3589 40.6197L39.6271 41.6203L41.2911 44.5003L43.0229 43.4997ZM41.3777 41.5861C43.9055 36.7876 47.0064 30.457 50.6789 22.5994L48.8671 21.7526C45.201 29.5963 42.1152 35.8951 39.6083 40.6539L41.3777 41.5861ZM50.6798 22.5975C54.3513 14.6995 57.6394 7.46157 60.5438 0.883932L58.7142 0.076067C55.816 6.63976 52.5334 13.8658 48.8662 21.7545L50.6798 22.5975ZM59.629 1.48H61.293V-0.52H59.629V1.48ZM60.8196 1.36082L65.9396 4.11282L66.8864 2.35117L61.7664 -0.400825L60.8196 1.36082ZM65.5255 2.77118L48.2455 36.0512L50.0205 36.9728L67.3005 3.69281L65.5255 2.77118ZM48.2968 35.9636L45.7368 39.8676L47.4092 40.9644L49.9692 37.0604L48.2968 35.9636ZM46.6262 41.4146L63.4582 40.5186L63.3518 38.5214L46.5198 39.4174L46.6262 41.4146ZM64.4048 39.5405L64.6608 27.0605L62.6612 27.0195L62.4052 39.4995L64.4048 39.5405ZM63.7431 28.0366L69.1831 27.5886L69.0189 25.5954L63.5789 26.0434L63.7431 28.0366ZM68.101 26.592V39.2H70.101V26.592H68.101ZM69.1506 40.1988L78.1746 39.7508L78.0754 37.7532L69.0514 38.2012L69.1506 40.1988ZM77.125 38.752V44H79.125V38.752H77.125ZM78.125 43H69.101V45H78.125V43ZM68.101 44V54.304H70.101V44H68.101ZM69.101 53.304H63.405V55.304H69.101V53.304ZM64.405 54.304V44H62.405V54.304H64.405Z" fill="#020E35" mask="url(#path-1-outside-1_13_730)"/>
</svg>
