<svg width="72" height="53" viewBox="0 0 72 53" fill="none" xmlns="http://www.w3.org/2000/svg">
<mask id="path-1-outside-1_13_735" maskUnits="userSpaceOnUse" x="-1" y="-1" width="74" height="55" fill="black">
<rect fill="white" x="-1" y="-1" width="74" height="55"/>
<path d="M17.288 42.576C11.8267 42.576 7.73067 40.6987 5 36.944C2.312 33.1467 0.968 28.2613 0.968 22.288C0.968 18.1067 1.736 14.4587 3.272 11.344C4.808 8.18666 6.89867 5.776 9.544 4.112C12.1893 2.448 15.0907 1.616 18.248 1.616C23.7947 1.616 27.848 3.408 30.408 6.992C32.968 10.5333 34.248 15.3973 34.248 21.584C34.248 25.7227 33.5013 29.392 32.008 32.592C30.5573 35.7493 28.5307 38.2027 25.928 39.952C23.368 41.7013 20.488 42.576 17.288 42.576ZM17.544 39.312C23.9013 39.312 27.08 33.616 27.08 22.224C27.08 16.6773 26.3547 12.4107 24.904 9.424C23.496 6.43733 21.1067 4.944 17.736 4.944C14.4507 4.944 12.0187 6.37333 10.44 9.232C8.86133 12.048 8.072 16.1013 8.072 21.392C8.072 26.8107 8.81867 31.1627 10.312 34.448C11.848 37.6907 14.2587 39.312 17.544 39.312ZM44.141 48.784C45.3357 48.912 46.6157 48.976 47.981 48.976C51.0103 48.976 53.7837 48.3573 56.301 47.12C58.8183 45.8827 60.8023 44.176 62.253 42C63.7037 39.824 64.429 37.3493 64.429 34.576C64.429 27.7067 61.2503 24.272 54.893 24.272C53.485 24.272 51.9063 24.4853 50.157 24.912C48.4503 25.296 46.957 25.7653 45.677 26.32L43.949 25.104L47.085 2.064H65.325L65.965 0.848H69.933L68.781 7.44H51.821L48.877 22.352C50.029 21.7547 51.501 21.2213 53.293 20.752C55.085 20.2827 56.877 20.048 58.669 20.048C62.765 20.048 65.9863 21.2 68.333 23.504C70.6797 25.808 71.853 29.1573 71.853 33.552C71.853 36.9227 70.8717 40.0373 68.909 42.896C66.989 45.7547 64.2583 48.0373 60.717 49.744C57.1757 51.4507 53.1437 52.304 48.621 52.304C46.7863 52.304 45.293 52.1547 44.141 51.856V48.784Z"/>
</mask>
<path d="M5 36.944L4.18373 37.5218L4.19126 37.5322L5 36.944ZM3.272 11.344L4.16888 11.7863L4.17124 11.7815L3.272 11.344ZM9.544 4.112L10.0765 4.95846H10.0765L9.544 4.112ZM30.408 6.992L29.5943 7.57324L29.5976 7.57784L30.408 6.992ZM32.008 32.592L31.1018 32.1691L31.0993 32.1745L32.008 32.592ZM25.928 39.952L25.3701 39.122L25.3638 39.1264L25.928 39.952ZM24.904 9.424L23.9994 9.85045L24.0045 9.8609L24.904 9.424ZM10.44 9.232L11.3123 9.72101L11.3154 9.71542L10.44 9.232ZM10.312 34.448L9.40163 34.8618L9.40489 34.869L9.40826 34.8761L10.312 34.448ZM17.288 41.576C12.0824 41.576 8.31641 39.8039 5.80874 36.3558L4.19126 37.5322C7.14492 41.5934 11.5709 43.576 17.288 43.576V41.576ZM5.81621 36.3662C3.27774 32.7802 1.968 28.1131 1.968 22.288H-0.0319998C-0.0319998 28.4096 1.34626 33.5132 4.1838 37.5218L5.81621 36.3662ZM1.968 22.288C1.968 18.2291 2.71318 14.7381 4.16887 11.7863L2.37513 10.9017C0.758824 14.1792 -0.0319998 17.9842 -0.0319998 22.288H1.968ZM4.17124 11.7815C5.63592 8.77071 7.6081 6.51114 10.0765 4.95846L9.01155 3.26554C6.18924 5.04086 3.98008 7.60262 2.37277 10.9065L4.17124 11.7815ZM10.0765 4.95846C12.5606 3.39586 15.277 2.616 18.248 2.616V0.615997C14.9043 0.615997 11.8181 1.50013 9.01155 3.26554L10.0765 4.95846ZM18.248 2.616C23.5652 2.616 27.2704 4.31986 29.5943 7.57323L31.2217 6.41076C28.4256 2.49613 24.0241 0.615997 18.248 0.615997V2.616ZM29.5976 7.57784C31.9926 10.891 33.248 15.5231 33.248 21.584H35.248C35.248 15.2716 33.9434 10.1757 31.2184 6.40615L29.5976 7.57784ZM33.248 21.584C33.248 25.6015 32.5236 29.1224 31.1018 32.1691L32.9142 33.0149C34.4791 29.6616 35.248 25.8438 35.248 21.584H33.248ZM31.0993 32.1745C29.7169 35.1833 27.804 37.4862 25.3702 39.122L26.4858 40.782C29.2573 38.9192 31.3978 36.3154 32.9167 33.0095L31.0993 32.1745ZM25.3638 39.1264C22.9756 40.7583 20.2935 41.576 17.288 41.576V43.576C20.6825 43.576 23.7604 42.6444 26.4922 40.7776L25.3638 39.1264ZM17.544 40.312C19.2873 40.312 20.8604 39.9199 22.2288 39.1025C23.5959 38.2859 24.7041 37.0776 25.5692 35.5273C27.2826 32.457 28.08 27.9802 28.08 22.224H26.08C26.08 27.8598 25.2881 31.927 23.8228 34.5527C23.0986 35.8504 22.2201 36.7781 21.2032 37.3855C20.1876 37.9921 18.9794 38.312 17.544 38.312V40.312ZM28.08 22.224C28.08 16.6147 27.3504 12.172 25.8035 8.98709L24.0045 9.8609C25.3589 12.6494 26.08 16.7399 26.08 22.224H28.08ZM25.8085 8.99758C25.037 7.36109 23.9697 6.0808 22.586 5.216C21.2036 4.35201 19.5716 3.944 17.736 3.944V5.944C19.271 5.944 20.5191 6.28266 21.526 6.91199C22.5317 7.54053 23.363 8.50025 23.9995 9.85042L25.8085 8.99758ZM17.736 3.944C15.9448 3.944 14.3346 4.33499 12.9413 5.15387C11.5477 5.97293 10.4268 7.18733 9.56461 8.74858L11.3154 9.71542C12.0319 8.418 12.9163 7.4884 13.9547 6.87813C14.9934 6.26767 16.2418 5.944 17.736 5.944V3.944ZM9.56772 8.74299C7.86793 11.7751 7.072 16.0276 7.072 21.392H9.072C9.072 16.1751 9.85474 12.3209 11.3123 9.721L9.56772 8.74299ZM7.072 21.392C7.072 26.8883 7.82719 31.398 9.40163 34.8618L11.2224 34.0342C9.81014 30.9273 9.072 26.733 9.072 21.392H7.072ZM9.40826 34.8761C10.2353 36.622 11.3279 37.9936 12.7139 38.9258C14.1052 39.8615 15.7294 40.312 17.544 40.312V38.312C16.0732 38.312 14.8495 37.9518 13.8301 37.2662C12.8054 36.577 11.9247 35.5167 11.2157 34.0199L9.40826 34.8761ZM44.141 48.784L44.2475 47.7897L43.141 47.6711V48.784H44.141ZM56.301 47.12L55.8599 46.2226L56.301 47.12ZM62.253 42L61.421 41.4453L62.253 42ZM50.157 24.912L50.3765 25.8876L50.3853 25.8856L50.394 25.8835L50.157 24.912ZM45.677 26.32L45.1015 27.1378L45.5601 27.4605L46.0746 27.2376L45.677 26.32ZM43.949 25.104L42.9581 24.9691L42.8761 25.5718L43.3735 25.9218L43.949 25.104ZM47.085 2.064V1.064H46.2119L46.0941 1.92913L47.085 2.064ZM65.325 2.064V3.064H65.9287L66.2099 2.52975L65.325 2.064ZM65.965 0.848V-0.152H65.3613L65.0801 0.382252L65.965 0.848ZM69.933 0.848L70.9181 1.02015L71.1229 -0.152H69.933V0.848ZM68.781 7.44V8.44H69.6214L69.7661 7.61215L68.781 7.44ZM51.821 7.44V6.44H50.9991L50.8399 7.24631L51.821 7.44ZM48.877 22.352L47.8959 22.1583L47.4937 24.1957L49.3373 23.2398L48.877 22.352ZM53.293 20.752L53.5464 21.7194L53.293 20.752ZM68.333 23.504L67.6324 24.2176L68.333 23.504ZM68.909 42.896L68.0846 42.33L68.0789 42.3384L68.909 42.896ZM44.141 51.856H43.141V52.6298L43.89 52.824L44.141 51.856ZM44.0345 49.7783C45.2689 49.9106 46.5848 49.976 47.981 49.976V47.976C46.6466 47.976 45.4024 47.9134 44.2475 47.7897L44.0345 49.7783ZM47.981 49.976C51.1508 49.976 54.0768 49.3275 56.7421 48.0174L55.8599 46.2226C53.4906 47.3871 50.8699 47.976 47.981 47.976V49.976ZM56.7421 48.0174C59.4058 46.7082 61.5295 44.8881 63.0851 42.5547L61.421 41.4453C60.0752 43.4639 58.2309 45.0572 55.8599 46.2226L56.7421 48.0174ZM63.0851 42.5547C64.652 40.2043 65.429 37.5342 65.429 34.576H63.429C63.429 37.1645 62.7553 39.4437 61.421 41.4453L63.0851 42.5547ZM65.429 34.576C65.429 31.0056 64.6045 28.1414 62.7789 26.1688C60.9398 24.1815 58.2465 23.272 54.893 23.272V25.272C57.8968 25.272 59.9715 26.0798 61.3111 27.5272C62.6641 28.9893 63.429 31.2771 63.429 34.576H65.429ZM54.893 23.272C53.3866 23.272 51.7266 23.4999 49.92 23.9405L50.394 25.8835C52.0861 25.4708 53.5834 25.272 54.893 25.272V23.272ZM49.9375 23.9364C48.1844 24.3308 46.6291 24.8176 45.2794 25.4024L46.0746 27.2376C47.2849 26.7131 48.7163 26.2612 50.3765 25.8876L49.9375 23.9364ZM46.2525 25.5022L44.5245 24.2862L43.3735 25.9218L45.1015 27.1378L46.2525 25.5022ZM44.9399 25.2389L48.0759 2.19887L46.0941 1.92913L42.9581 24.9691L44.9399 25.2389ZM47.085 3.064H65.325V1.064H47.085V3.064ZM66.2099 2.52975L66.8499 1.31375L65.0801 0.382252L64.4401 1.59825L66.2099 2.52975ZM65.965 1.848H69.933V-0.152H65.965V1.848ZM68.9479 0.675852L67.7959 7.26785L69.7661 7.61215L70.9181 1.02015L68.9479 0.675852ZM68.781 6.44H51.821V8.44H68.781V6.44ZM50.8399 7.24631L47.8959 22.1583L49.8581 22.5457L52.8021 7.63368L50.8399 7.24631ZM49.3373 23.2398C50.4022 22.6876 51.7983 22.1772 53.5464 21.7194L53.0396 19.7846C51.2037 20.2655 49.6558 20.8217 48.4167 21.4642L49.3373 23.2398ZM53.5464 21.7194C55.2584 21.271 56.9653 21.048 58.669 21.048V19.048C56.7887 19.048 54.9116 19.2944 53.0396 19.7846L53.5464 21.7194ZM58.669 21.048C62.5708 21.048 65.5161 22.1397 67.6324 24.2176L69.0336 22.7904C66.4566 20.2603 62.9592 19.048 58.669 19.048V21.048ZM67.6324 24.2176C69.7298 26.2768 70.853 29.3323 70.853 33.552H72.853C72.853 28.9824 71.6295 25.3392 69.0336 22.7904L67.6324 24.2176ZM70.853 33.552C70.853 36.7145 69.9364 39.6328 68.0846 42.33L69.7334 43.462C71.8069 40.4418 72.853 37.1308 72.853 33.552H70.853ZM68.0789 42.3384C66.2714 45.0296 63.6871 47.2026 60.2829 48.8432L61.1511 50.6448C64.8296 48.8721 67.7066 46.4797 69.7391 43.4536L68.0789 42.3384ZM60.2829 48.8432C56.8959 50.4754 53.016 51.304 48.621 51.304V53.304C53.2714 53.304 57.4554 52.4259 61.1511 50.6448L60.2829 48.8432ZM48.621 51.304C46.8306 51.304 45.4304 51.1572 44.392 50.888L43.89 52.824C45.1556 53.1521 46.7421 53.304 48.621 53.304V51.304ZM45.141 51.856V48.784H43.141V51.856H45.141Z" fill="#020E35" mask="url(#path-1-outside-1_13_735)"/>
</svg>
