<svg width="77" height="52" viewBox="0 0 77 52" fill="none" xmlns="http://www.w3.org/2000/svg">
<mask id="path-1-outside-1_13_740" maskUnits="userSpaceOnUse" x="-1" y="-1" width="79" height="54" fill="black">
<rect fill="white" x="-1" y="-1" width="79" height="54"/>
<path d="M17.288 51.576C11.8267 51.576 7.73067 49.6987 5 45.944C2.312 42.1467 0.968 37.2613 0.968 31.288C0.968 27.1067 1.736 23.4587 3.272 20.344C4.808 17.1867 6.89867 14.776 9.544 13.112C12.1893 11.448 15.0907 10.616 18.248 10.616C23.7947 10.616 27.848 12.408 30.408 15.992C32.968 19.5333 34.248 24.3973 34.248 30.584C34.248 34.7227 33.5013 38.392 32.008 41.592C30.5573 44.7493 28.5307 47.2027 25.928 48.952C23.368 50.7013 20.488 51.576 17.288 51.576ZM17.544 48.312C23.9013 48.312 27.08 42.616 27.08 31.224C27.08 25.6773 26.3547 21.4107 24.904 18.424C23.496 15.4373 21.1067 13.944 17.736 13.944C14.4507 13.944 12.0187 15.3733 10.44 18.232C8.86133 21.048 8.072 25.1013 8.072 30.392C8.072 35.8107 8.81867 40.1627 10.312 43.448C11.848 46.6907 14.2587 48.312 17.544 48.312ZM59.565 51.704C56.109 51.704 53.1223 50.8507 50.605 49.144C48.1303 47.3947 46.2317 45.048 44.909 42.104C43.629 39.1173 42.989 35.8107 42.989 32.184C42.989 26.808 44.2903 21.8587 46.893 17.336C49.4957 12.7707 52.8237 9.03733 56.877 6.136C60.973 3.192 65.1543 1.37866 69.421 0.695999L70.893 3.448C65.901 5.02666 61.6983 7.672 58.285 11.384C54.8717 15.0533 52.5463 19.2347 51.309 23.928C52.3757 22.6907 53.8477 21.6453 55.725 20.792C57.6023 19.896 59.7783 19.448 62.253 19.448C66.6903 19.448 70.0823 20.7493 72.429 23.352C74.8183 25.9547 76.013 29.56 76.013 34.168C76.013 37.2827 75.3517 40.184 74.029 42.872C72.749 45.5173 70.8503 47.6507 68.333 49.272C65.8583 50.8933 62.9357 51.704 59.565 51.704ZM60.333 23.416C58.029 23.416 55.981 23.9493 54.189 25.016C52.397 26.04 51.1597 27.1493 50.477 28.344C50.3917 29.368 50.349 30.2 50.349 30.84C50.221 36.0027 50.9037 40.2267 52.397 43.512C53.8903 46.7973 56.4077 48.44 59.949 48.44C61.9117 48.44 63.5757 47.8427 64.941 46.648C66.3063 45.4107 67.309 43.8107 67.949 41.848C68.6317 39.8853 68.973 37.816 68.973 35.64C68.973 31.416 68.1837 28.3227 66.605 26.36C65.069 24.3973 62.9783 23.416 60.333 23.416Z"/>
</mask>
<path d="M5 45.944L4.18373 46.5218L4.19126 46.5322L5 45.944ZM3.272 20.344L4.16888 20.7863L4.17124 20.7815L3.272 20.344ZM9.544 13.112L10.0765 13.9585H10.0765L9.544 13.112ZM30.408 15.992L29.5943 16.5732L29.5976 16.5778L30.408 15.992ZM32.008 41.592L31.1018 41.1691L31.0993 41.1745L32.008 41.592ZM25.928 48.952L25.3701 48.122L25.3638 48.1264L25.928 48.952ZM24.904 18.424L23.9994 18.8504L24.0045 18.8609L24.904 18.424ZM10.44 18.232L11.3123 18.721L11.3154 18.7154L10.44 18.232ZM10.312 43.448L9.40163 43.8618L9.40489 43.869L9.40826 43.8761L10.312 43.448ZM17.288 50.576C12.0824 50.576 8.31641 48.8039 5.80874 45.3558L4.19126 46.5322C7.14492 50.5934 11.5709 52.576 17.288 52.576V50.576ZM5.81621 45.3662C3.27774 41.7802 1.968 37.1131 1.968 31.288H-0.0319998C-0.0319998 37.4096 1.34626 42.5132 4.1838 46.5218L5.81621 45.3662ZM1.968 31.288C1.968 27.2291 2.71318 23.7381 4.16887 20.7863L2.37513 19.9017C0.758824 23.1792 -0.0319998 26.9842 -0.0319998 31.288H1.968ZM4.17124 20.7815C5.63592 17.7707 7.6081 15.5111 10.0765 13.9585L9.01155 12.2655C6.18924 14.0409 3.98008 16.6026 2.37277 19.9065L4.17124 20.7815ZM10.0765 13.9585C12.5606 12.3959 15.277 11.616 18.248 11.616V9.616C14.9043 9.616 11.8181 10.5001 9.01155 12.2655L10.0765 13.9585ZM18.248 11.616C23.5652 11.616 27.2704 13.3199 29.5943 16.5732L31.2217 15.4108C28.4256 11.4961 24.0241 9.616 18.248 9.616V11.616ZM29.5976 16.5778C31.9926 19.891 33.248 24.5231 33.248 30.584H35.248C35.248 24.2716 33.9434 19.1757 31.2184 15.4062L29.5976 16.5778ZM33.248 30.584C33.248 34.6015 32.5236 38.1224 31.1018 41.1691L32.9142 42.0149C34.4791 38.6616 35.248 34.8438 35.248 30.584H33.248ZM31.0993 41.1745C29.7169 44.1833 27.804 46.4862 25.3702 48.122L26.4858 49.782C29.2573 47.9192 31.3978 45.3154 32.9167 42.0095L31.0993 41.1745ZM25.3638 48.1264C22.9756 49.7583 20.2935 50.576 17.288 50.576V52.576C20.6825 52.576 23.7604 51.6444 26.4922 49.7776L25.3638 48.1264ZM17.544 49.312C19.2873 49.312 20.8604 48.9199 22.2288 48.1025C23.5959 47.2859 24.7041 46.0776 25.5692 44.5273C27.2826 41.457 28.08 36.9802 28.08 31.224H26.08C26.08 36.8598 25.2881 40.927 23.8228 43.5527C23.0986 44.8504 22.2201 45.7781 21.2032 46.3855C20.1876 46.9921 18.9794 47.312 17.544 47.312V49.312ZM28.08 31.224C28.08 25.6147 27.3504 21.172 25.8035 17.9871L24.0045 18.8609C25.3589 21.6494 26.08 25.7399 26.08 31.224H28.08ZM25.8085 17.9976C25.037 16.3611 23.9697 15.0808 22.586 14.216C21.2036 13.352 19.5716 12.944 17.736 12.944V14.944C19.271 14.944 20.5191 15.2827 21.526 15.912C22.5317 16.5405 23.363 17.5002 23.9995 18.8504L25.8085 17.9976ZM17.736 12.944C15.9448 12.944 14.3346 13.335 12.9413 14.1539C11.5477 14.9729 10.4268 16.1873 9.56461 17.7486L11.3154 18.7154C12.0319 17.418 12.9163 16.4884 13.9547 15.8781C14.9934 15.2677 16.2418 14.944 17.736 14.944V12.944ZM9.56772 17.743C7.86793 20.7751 7.072 25.0276 7.072 30.392H9.072C9.072 25.1751 9.85474 21.3209 11.3123 18.721L9.56772 17.743ZM7.072 30.392C7.072 35.8883 7.82719 40.398 9.40163 43.8618L11.2224 43.0342C9.81014 39.9273 9.072 35.733 9.072 30.392H7.072ZM9.40826 43.8761C10.2353 45.622 11.3279 46.9936 12.7139 47.9258C14.1052 48.8615 15.7294 49.312 17.544 49.312V47.312C16.0732 47.312 14.8495 46.9518 13.8301 46.2662C12.8054 45.577 11.9247 44.5167 11.2157 43.0199L9.40826 43.8761ZM50.605 49.144L50.0278 49.9606L50.0357 49.9662L50.0438 49.9717L50.605 49.144ZM44.909 42.104L43.9899 42.4979L43.9933 42.5059L43.9968 42.5138L44.909 42.104ZM46.893 17.336L47.7597 17.8348L47.7617 17.8313L46.893 17.336ZM56.877 6.136L57.459 6.94915L57.4606 6.94801L56.877 6.136ZM69.421 0.695999L70.3028 0.224347L69.9667 -0.404028L69.263 -0.291441L69.421 0.695999ZM70.893 3.448L71.1945 4.40146L72.3428 4.03832L71.7748 2.97635L70.893 3.448ZM58.285 11.384L59.0172 12.0651L59.0211 12.0609L58.285 11.384ZM51.309 23.928L50.342 23.6731L52.0664 24.5809L51.309 23.928ZM55.725 20.792L56.1388 21.7024L56.1473 21.6985L56.1557 21.6945L55.725 20.792ZM72.429 23.352L71.6863 24.0217L71.6923 24.0283L72.429 23.352ZM74.029 42.872L73.1317 42.4305L73.1288 42.4364L74.029 42.872ZM68.333 49.272L67.7915 48.4313L67.785 48.4355L68.333 49.272ZM54.189 25.016L54.6851 25.8842L54.6929 25.8798L54.7005 25.8753L54.189 25.016ZM50.477 28.344L49.6088 27.8479L49.4989 28.0402L49.4805 28.261L50.477 28.344ZM50.349 30.84L51.3487 30.8648L51.349 30.8524V30.84H50.349ZM52.397 43.512L51.4866 43.9258L52.397 43.512ZM64.941 46.648L65.5995 47.4006L65.6061 47.3948L65.6125 47.389L64.941 46.648ZM67.949 41.848L67.0045 41.5195L67.0013 41.5287L66.9983 41.538L67.949 41.848ZM66.605 26.36L65.8174 26.9764L65.8258 26.9868L66.605 26.36ZM59.565 50.704C56.2809 50.704 53.496 49.8958 51.1662 48.3163L50.0438 49.9717C52.7487 51.8055 55.9371 52.704 59.565 52.704V50.704ZM51.1822 48.3274C48.8631 46.688 47.0755 44.4861 45.8212 41.6942L43.9968 42.5138C45.3878 45.6099 47.3975 48.1013 50.0278 49.9606L51.1822 48.3274ZM45.8281 41.7101C44.6074 38.8616 43.989 35.691 43.989 32.184H41.989C41.989 35.9303 42.6506 39.3731 43.9899 42.4979L45.8281 41.7101ZM43.989 32.184C43.989 26.9775 45.2471 22.201 47.7597 17.8348L46.0263 16.8372C43.3336 21.5163 41.989 26.6385 41.989 32.184H43.989ZM47.7617 17.8313C50.2969 13.3844 53.5294 9.76192 57.459 6.94915L56.295 5.32284C52.1179 8.31274 48.6945 12.1569 46.0243 16.8407L47.7617 17.8313ZM57.4606 6.94801C61.4514 4.07963 65.4897 2.33773 69.579 1.68344L69.263 -0.291441C64.819 0.4196 60.4946 2.30437 56.2934 5.32398L57.4606 6.94801ZM68.5392 1.16765L70.0112 3.91965L71.7748 2.97635L70.3028 0.224347L68.5392 1.16765ZM70.5915 2.49454C65.4396 4.12377 61.0851 6.86153 57.5489 10.7071L59.0211 12.0609C62.3116 8.48247 66.3624 5.92956 71.1945 4.40146L70.5915 2.49454ZM57.5528 10.7029C54.0311 14.4887 51.6227 18.8152 50.342 23.6731L52.276 24.1829C53.4699 19.6541 55.7122 15.6179 59.0172 12.0651L57.5528 10.7029ZM52.0664 24.5809C53.0171 23.4781 54.3598 22.511 56.1388 21.7024L55.3112 19.8816C53.3355 20.7797 51.7342 21.9032 50.5516 23.2751L52.0664 24.5809ZM56.1557 21.6945C57.8754 20.8737 59.8994 20.448 62.253 20.448V18.448C59.6572 18.448 57.3293 18.9183 55.2943 19.8895L56.1557 21.6945ZM62.253 20.448C66.4878 20.448 69.5773 21.6825 71.6863 24.0216L73.1717 22.6824C70.5874 19.8161 66.8929 18.448 62.253 18.448V20.448ZM71.6923 24.0283C73.8659 26.3959 75.013 29.7321 75.013 34.168H77.013C77.013 29.3879 75.7708 25.5134 73.1657 22.6757L71.6923 24.0283ZM75.013 34.168C75.013 37.1358 74.3841 39.8854 73.1317 42.4305L74.9263 43.3135C76.3192 40.4826 77.013 37.4295 77.013 34.168H75.013ZM73.1288 42.4364C71.9305 44.9131 70.1574 46.9075 67.7915 48.4313L68.8745 50.1127C71.5433 48.3938 73.5675 46.1216 74.9292 43.3076L73.1288 42.4364ZM67.785 48.4355C65.495 49.9358 62.7689 50.704 59.565 50.704V52.704C63.1025 52.704 66.2216 51.8508 68.881 50.1085L67.785 48.4355ZM60.333 22.416C57.8684 22.416 55.6401 22.9885 53.6775 24.1567L54.7005 25.8753C56.3219 24.9102 58.1896 24.416 60.333 24.416V22.416ZM53.6929 24.1478C51.8177 25.2193 50.4136 26.4393 49.6088 27.8479L51.3452 28.8401C51.9057 27.8593 52.9763 26.8607 54.6851 25.8842L53.6929 24.1478ZM49.4805 28.261C49.394 29.2982 49.349 30.1609 49.349 30.84H51.349C51.349 30.2391 51.3893 29.4378 51.4735 28.427L49.4805 28.261ZM49.3493 30.8152C49.2191 36.0684 49.9098 40.4567 51.4866 43.9258L53.3074 43.0982C51.8976 39.9966 51.2229 35.9369 51.3487 30.8648L49.3493 30.8152ZM51.4866 43.9258C52.296 45.7064 53.4114 47.1011 54.8585 48.0455C56.3069 48.9906 58.0195 49.44 59.949 49.44V47.44C58.3372 47.44 57.0205 47.0681 55.9515 46.3705C54.8813 45.6722 53.9914 44.603 53.3074 43.0982L51.4866 43.9258ZM59.949 49.44C62.1324 49.44 64.0364 48.7683 65.5995 47.4006L64.2825 45.8954C63.115 46.917 61.6909 47.44 59.949 47.44V49.44ZM65.6125 47.389C67.1218 46.0212 68.2124 44.2659 68.8997 42.158L66.9983 41.538C66.4056 43.3555 65.4908 44.8002 64.2695 45.907L65.6125 47.389ZM68.8935 42.1765C69.6146 40.1033 69.973 37.9225 69.973 35.64H67.973C67.973 37.7095 67.6487 39.6674 67.0045 41.5195L68.8935 42.1765ZM69.973 35.64C69.973 31.3293 69.1745 27.959 67.3842 25.7332L65.8258 26.9868C67.1929 28.6864 67.973 31.5027 67.973 35.64H69.973ZM67.3925 25.7437C65.6539 23.5221 63.264 22.416 60.333 22.416V24.416C62.6926 24.416 64.4841 25.2725 65.8175 26.9763L67.3925 25.7437Z" fill="#020E35" mask="url(#path-1-outside-1_13_740)"/>
</svg>
