<svg width="51" height="51" viewBox="0 0 51 51" fill="none" xmlns="http://www.w3.org/2000/svg">
<path fill-rule="evenodd" clip-rule="evenodd" d="M25.7998 0.5C11.9927 0.5 0.799805 11.6929 0.799805 25.5C0.799805 39.3071 11.9927 50.5 25.7998 50.5C39.6069 50.5 50.7998 39.3071 50.7998 25.5C50.7998 18.8696 48.1659 12.5107 43.4775 7.82233C38.7891 3.13392 32.4302 0.5 25.7998 0.5ZM45.7999 25.4996C42.937 24.64 39.9641 24.2021 36.975 24.1996C35.1966 24.2233 33.4234 24.399 31.675 24.7246C31.05 23.1996 30.4 21.7246 29.7 20.2496C33.8114 18.1954 37.5605 15.4849 40.7999 12.2246C44.0448 15.8827 45.8253 20.6098 45.7999 25.4996ZM27.975 16.95C31.6844 15.0892 35.0628 12.6315 37.975 9.675C34.4876 6.97982 30.2075 5.51211 25.8 5.5C24.1817 5.50653 22.5701 5.70798 21 6.1C23.6076 9.52702 25.9399 13.155 27.975 16.95ZM17.3497 7.40002C20.0592 10.895 22.4758 14.6076 24.5747 18.5C20.1836 20.2148 15.5138 21.1047 10.7997 21.125C9.32101 21.1089 7.84408 21.0171 6.37473 20.85C7.79526 14.9299 11.835 9.97925 17.3497 7.40002ZM5.79979 24.5501V25.5001C5.81138 30.4329 7.64553 35.1875 10.9498 38.8501C14.8398 32.524 20.901 27.8315 27.9998 25.6501C27.4748 24.3501 26.8748 23.1001 26.2748 21.8501C21.3558 23.8334 16.1036 24.8601 10.7998 24.8751C9.12804 24.8693 7.45823 24.7608 5.79979 24.5501ZM13.7503 41.4249C17.1795 35.4906 22.7539 31.0973 29.3253 29.1499C31.0831 34.0074 32.3315 39.0344 33.0503 44.1499C26.5881 46.6922 19.2667 45.668 13.7503 41.4499V41.4249ZM33.0252 28.3C34.6206 32.8609 35.8086 37.5543 36.5752 42.325C41.1654 39.3934 44.3615 34.7166 45.4252 29.375C42.7003 28.4673 39.8473 28.003 36.9752 28C35.6533 28.012 34.3337 28.1122 33.0252 28.3Z" fill="#020E35"/>
</svg>
