<svg width="51" height="51" viewBox="0 0 51 51" fill="none" xmlns="http://www.w3.org/2000/svg">
<path fill-rule="evenodd" clip-rule="evenodd" d="M36.4 0.299805H14C6.26801 0.299805 0 6.56782 0 14.2998V36.6998C0 44.4318 6.26801 50.6998 14 50.6998H36.4C44.132 50.6998 50.4 44.4318 50.4 36.6998V14.2998C50.4 6.56782 44.132 0.299805 36.4 0.299805ZM45.5 36.6998C45.4846 41.7192 41.4194 45.7844 36.4 45.7998H14C8.98059 45.7844 4.91537 41.7192 4.9 36.6998V14.2998C4.91537 9.2804 8.98059 5.21518 14 5.1998H36.4C41.4194 5.21518 45.4846 9.2804 45.5 14.2998V36.6998ZM38.5 14.9998C40.0464 14.9998 41.3 13.7462 41.3 12.1998C41.3 10.6534 40.0464 9.39981 38.5 9.39981C36.9536 9.39981 35.7 10.6534 35.7 12.1998C35.7 13.7462 36.9536 14.9998 38.5 14.9998ZM25.2 12.8998C18.2412 12.8998 12.6 18.541 12.6 25.4998C12.6 32.4586 18.2412 38.0998 25.2 38.0998C32.1588 38.0998 37.8 32.4586 37.8 25.4998C37.8075 22.1558 36.4824 18.9466 34.1178 16.5821C31.7532 14.2175 28.544 12.8924 25.2 12.8998ZM17.5 25.4998C17.5 29.7524 20.9474 33.1998 25.2 33.1998C29.4526 33.1998 32.9 29.7524 32.9 25.4998C32.9 21.2472 29.4526 17.7998 25.2 17.7998C20.9474 17.7998 17.5 21.2472 17.5 25.4998Z" fill="#020E35"/>
</svg>
