<svg width="51" height="51" viewBox="0 0 51 51" fill="none" xmlns="http://www.w3.org/2000/svg">
<path fill-rule="evenodd" clip-rule="evenodd" d="M5.9999 0.299805H45.1999C48.2927 0.299805 50.7999 2.80701 50.7999 5.89981V45.0998C50.7999 48.1926 48.2927 50.6998 45.1999 50.6998H5.9999C2.90711 50.6998 0.399902 48.1926 0.399902 45.0998V5.89981C0.399902 2.80701 2.90711 0.299805 5.9999 0.299805ZM14.3999 42.2998C15.1731 42.2998 15.7999 41.673 15.7999 40.8998V21.2998C15.7999 20.5266 15.1731 19.8998 14.3999 19.8998H10.1999C9.4267 19.8998 8.7999 20.5266 8.7999 21.2998V40.8998C8.7999 41.673 9.4267 42.2998 10.1999 42.2998H14.3999ZM12.2999 17.0998C9.98031 17.0998 8.0999 15.2194 8.0999 12.8998C8.0999 10.5802 9.98031 8.69981 12.2999 8.69981C14.6195 8.69981 16.4999 10.5802 16.4999 12.8998C16.4999 15.2194 14.6195 17.0998 12.2999 17.0998ZM40.9999 42.2999C41.7731 42.2999 42.3999 41.6731 42.3999 40.8999V28.0199C42.4908 23.5701 39.2012 19.7725 34.7839 19.2279C31.6956 18.9458 28.703 20.3882 26.9999 22.9799V21.2999C26.9999 20.5267 26.3731 19.8999 25.5999 19.8999H21.3999C20.6267 19.8999 19.9999 20.5267 19.9999 21.2999V40.8999C19.9999 41.6731 20.6267 42.2999 21.3999 42.2999H25.5999C26.3731 42.2999 26.9999 41.6731 26.9999 40.8999V30.3999C26.9999 28.0803 28.8803 26.1999 31.1999 26.1999C33.5195 26.1999 35.3999 28.0803 35.3999 30.3999V40.8999C35.3999 41.6731 36.0267 42.2999 36.7999 42.2999H40.9999Z" fill="#020E35"/>
</svg>
