<svg width="42" height="42" viewBox="0 0 42 42" fill="none" xmlns="http://www.w3.org/2000/svg">
<path d="M19.4419 17.9602L5.83774 31.6376C5.54859 31.9283 5.3192 32.2733 5.16266 32.6532C5.0062 33.033 4.92557 33.44 4.92557 33.8512C4.92557 34.2623 5.00602 34.6694 5.16248 35.0492C5.31894 35.429 5.54833 35.7742 5.83749 36.0649C6.12655 36.3557 6.46983 36.5862 6.84764 36.7436C7.22537 36.901 7.63028 36.9819 8.03922 36.982C8.44815 36.982 8.85307 36.901 9.23088 36.7437C9.60869 36.5865 9.95196 36.3559 10.2411 36.0652L15.9911 30.2843C16.2234 30.1103 16.5102 30.0261 16.7992 30.0471C17.0882 30.0679 17.36 30.1927 17.5652 30.3983C17.7942 30.6274 17.9241 30.9381 17.9266 31.263C17.929 31.5878 17.8037 31.9006 17.578 32.133L13.369 36.3647C12.785 36.9518 12.457 37.7481 12.457 38.5784C12.4571 39.4087 12.7853 40.2049 13.3692 40.792C13.9532 41.3791 14.7453 41.7088 15.5711 41.7088C16.397 41.7087 17.189 41.3789 17.7729 40.7917L29.5052 28.9958C29.6176 28.8827 29.7511 28.7931 29.8981 28.7319C30.045 28.6706 30.2024 28.6392 30.3615 28.6392C30.5205 28.6392 30.6779 28.6706 30.8249 28.7319C30.9717 28.7931 31.1053 28.8827 31.2177 28.9958C31.3302 29.1088 31.4193 29.243 31.4802 29.3907C31.5411 29.5384 31.5724 29.6968 31.5724 29.8567C31.5724 30.0165 31.5411 30.1748 31.4802 30.3225C31.4193 30.4703 31.3302 30.6045 31.2177 30.7175L30.4932 31.4428C29.9093 32.03 29.5813 32.8262 29.5814 33.6566C29.5814 34.4869 29.9095 35.2831 30.4936 35.8702C31.0775 36.4572 31.8696 36.787 32.6955 36.7869C33.5213 36.7869 34.3132 36.457 34.8972 35.8699L39.8179 30.9227C40.4019 30.3357 40.73 29.5394 40.7301 28.7091C40.7301 27.8788 40.4021 27.0825 39.8182 26.4954C39.2342 25.9082 38.4423 25.5784 37.6164 25.5783C36.7905 25.5783 35.9985 25.908 35.4145 26.4951L34.7005 27.2155C34.4733 27.4437 34.1652 27.572 33.8439 27.572C33.5227 27.5719 33.2147 27.4436 32.9876 27.2151C32.7604 26.9868 32.633 26.677 32.633 26.3541C32.633 26.0311 32.7607 25.7214 32.9879 25.493L40.3431 18.102C40.9271 17.5149 41.2551 16.7185 41.255 15.8883C41.2549 15.0579 40.9268 14.2617 40.3429 13.6747C39.7588 13.0875 38.9668 12.7578 38.141 12.7579C37.3151 12.7579 36.5231 13.0878 35.9391 13.6749L21.0607 28.6304C20.8295 28.8573 20.5186 28.9834 20.1955 28.9811C19.8724 28.9788 19.5632 28.8483 19.3353 28.618C19.1308 28.4114 19.007 28.1378 18.9864 27.8471C18.9658 27.5564 19.0498 27.2679 19.2231 27.0343L28.6869 17.5208C29.2583 16.9311 29.5757 16.1389 29.5703 15.3155C29.5649 14.4923 29.2373 13.7042 28.6582 13.1221C28.0791 12.5399 27.2954 12.2105 26.4765 12.2051C25.6576 12.1997 24.8695 12.5187 24.2829 13.0932L22.4925 14.8932C22.2624 15.0296 21.9938 15.0854 21.7287 15.0519C21.4637 15.0185 21.2171 14.8977 21.0276 14.7084C20.7985 14.4793 20.6686 14.1686 20.6662 13.8437C20.6638 13.5188 20.7891 13.2061 21.0147 12.9737L28.074 5.87593C28.6454 5.28616 28.9627 4.49386 28.9573 3.67061C28.952 2.84727 28.6242 2.05924 28.0453 1.47709C27.4662 0.894934 26.6823 0.565512 25.8635 0.560126C25.0446 0.554739 24.2566 0.873817 23.67 1.44827L11.9352 13.2442C11.7081 13.4725 11.4 13.6008 11.0788 13.6007C10.7575 13.6006 10.4496 13.4723 10.2224 13.2439C9.99531 13.0155 9.86775 12.7057 9.86783 12.3828C9.86792 12.0599 9.99557 11.7501 10.2227 11.5218L13.5185 8.21077C13.8164 7.92214 14.054 7.57673 14.2175 7.19464C14.3811 6.81263 14.4672 6.40165 14.471 5.9857C14.4749 5.56985 14.3961 5.15732 14.2396 4.77233C14.083 4.38733 13.8518 4.03756 13.5592 3.74345C13.2667 3.44934 12.9188 3.21679 12.5359 3.05939C12.1529 2.90198 11.7426 2.8229 11.3289 2.82675C10.9153 2.83051 10.5065 2.9172 10.1265 3.08162C9.74651 3.24603 9.4029 3.48491 9.1158 3.7844L1.62563 11.3142C1.04168 11.9012 0.713543 12.6975 0.713458 13.5278C0.713458 13.9388 0.793912 14.346 0.950372 14.7258C1.10683 15.1056 1.33622 15.4508 1.62537 15.7415C1.91444 16.0322 2.25771 16.2628 2.63552 16.4201C3.01325 16.5775 3.41817 16.6585 3.8271 16.6586C4.65292 16.6586 5.44497 16.3288 6.029 15.7418L6.74188 15.0251C6.96896 14.7967 7.27701 14.6684 7.59822 14.6683C7.91943 14.6682 8.22757 14.7965 8.45473 15.0248C8.6819 15.2531 8.80955 15.5629 8.80963 15.8858C8.80963 16.2087 8.68207 16.5185 8.45499 16.7468L1.09974 24.138C0.528357 24.7278 0.21099 25.5201 0.216376 26.3433C0.221762 27.1666 0.549389 27.9546 1.12846 28.5368C1.70754 29.1189 2.49129 29.4483 3.31018 29.4538C4.12908 29.4592 4.91711 29.1401 5.5037 28.5656L17.5314 16.4751C17.7627 16.2482 18.0736 16.1223 18.3968 16.1247C18.7199 16.1271 19.029 16.2577 19.2568 16.488C19.4452 16.6783 19.5655 16.926 19.599 17.1924C19.6325 17.4588 19.5773 17.7288 19.4419 17.9602Z" fill="#FF5678"/>
</svg>
