<svg width="50" height="43" viewBox="0 0 50 43" fill="none" xmlns="http://www.w3.org/2000/svg">
<path d="M49.7281 6.58699C48.4638 8.28762 46.9356 9.77109 45.2025 10.9801C45.2025 11.4244 45.2025 11.8686 45.2025 12.3375C45.2163 20.405 42.0207 28.1407 36.3319 33.8104C30.6432 39.4801 22.9372 42.6095 14.9415 42.4971C10.319 42.5126 5.75569 41.4483 1.60904 39.3873C1.38546 39.2889 1.24125 39.0658 1.2421 38.8197V38.5482C1.2421 38.1938 1.52686 37.9065 1.87814 37.9065C6.42194 37.7555 10.8036 36.1668 14.4033 33.3653C10.2905 33.2818 6.59008 30.8249 4.88711 27.0471C4.80109 26.8408 4.82788 26.6041 4.95779 26.4226C5.08769 26.2412 5.30195 26.1411 5.52315 26.1586C6.77312 26.2853 8.03557 26.168 9.24156 25.8131C4.7014 24.8627 1.28999 21.0618 0.801758 16.4098C0.784405 16.1867 0.883581 15.9705 1.06346 15.8394C1.24333 15.7084 1.4779 15.6813 1.68243 15.7681C2.90081 16.3103 4.21605 16.5958 5.54762 16.6073C1.56937 13.9742 -0.148976 8.96601 1.36441 4.41511C1.52063 3.97289 1.89594 3.64621 2.35243 3.55512C2.80891 3.46402 3.27923 3.62195 3.59056 3.97086C8.95897 9.73246 16.3352 13.1658 24.1641 13.5469C23.9636 12.74 23.8649 11.9107 23.8705 11.0788C23.9438 6.71688 26.6202 2.83117 30.6468 1.24083C34.6734 -0.349502 39.2533 0.670291 42.2424 3.82278C44.2799 3.43137 46.2497 2.74123 48.0891 1.7743C48.2238 1.68947 48.3947 1.68947 48.5294 1.7743C48.6135 1.91024 48.6135 2.08262 48.5294 2.21855C47.6385 4.27592 46.1334 6.0015 44.2239 7.15464C45.896 6.95911 47.5387 6.56137 49.1166 5.96998C49.2494 5.87879 49.424 5.87879 49.5569 5.96998C49.6682 6.02133 49.7514 6.11952 49.7844 6.23841C49.8174 6.3573 49.7968 6.48481 49.7281 6.58699Z" fill="#020E35"/>
</svg>
