<svg width="16" height="16" viewBox="0 0 16 16" fill="none" xmlns="http://www.w3.org/2000/svg">
<path fill-rule="evenodd" clip-rule="evenodd" d="M7.58922 0.847656C3.43536 0.847656 0.0649414 4.21808 0.0649414 8.37193C0.0649414 12.5258 3.43536 15.8962 7.58922 15.8962C11.7349 15.8962 15.1135 12.5258 15.1135 8.37193C15.1135 4.21808 11.7349 0.847656 7.58922 0.847656ZM12.5591 4.316C13.4568 5.40956 13.9955 6.80505 14.0118 8.3148C13.7996 8.27402 11.6778 7.84147 9.53965 8.11079C9.4907 8.0047 9.44988 7.89043 9.40092 7.7762C9.27033 7.4661 9.12347 7.14783 8.97655 6.84587C11.3432 5.8829 12.4204 4.49554 12.5591 4.316ZM7.58922 1.95753C9.22138 1.95753 10.7148 2.56959 11.8492 3.57337C11.7349 3.73659 10.7638 5.03416 8.47873 5.89104C7.42599 3.95693 6.25902 2.37373 6.07947 2.1289C6.56093 2.01465 7.06694 1.95753 7.58922 1.95753ZM4.85537 2.56143C5.02673 2.78993 6.16925 4.38129 7.23831 6.27459C4.23512 7.07437 1.58286 7.05805 1.29723 7.05805C1.71343 5.0668 3.05996 3.41015 4.85537 2.56143ZM1.15849 8.38012C1.15849 8.3148 1.15849 8.24952 1.15849 8.18425C1.43596 8.19239 4.55339 8.23321 7.76058 7.27024C7.94832 7.62929 8.11968 7.99652 8.28291 8.36375C8.20127 8.38825 8.1115 8.41275 8.02991 8.43721C4.71661 9.50627 2.95387 12.4278 2.80698 12.6727C1.78687 11.5383 1.15849 10.0286 1.15849 8.38012ZM7.58922 14.8027C6.10393 14.8027 4.73293 14.2967 3.64754 13.448C3.76179 13.2113 5.0675 10.6978 8.69091 9.43286C8.70723 9.42467 8.71542 9.42467 8.73173 9.41654C9.63756 11.7587 10.0048 13.7254 10.1028 14.2885C9.32747 14.6231 8.47873 14.8027 7.58922 14.8027ZM11.1718 13.701C11.1065 13.3092 10.7638 11.4322 9.9232 9.12272C11.939 8.80444 13.7017 9.32676 13.922 9.40022C13.6446 11.1874 12.6163 12.7298 11.1718 13.701Z" fill="#98A2B3"/>
</svg>
