<svg width="16" height="16" viewBox="0 0 16 16" fill="none" xmlns="http://www.w3.org/2000/svg">
<path d="M14.4102 0.847656H1.58659C0.972306 0.847656 0.475586 1.33262 0.475586 1.93221V14.8087C0.475586 15.4083 0.972306 15.8962 1.58659 15.8962H14.4102C15.0245 15.8962 15.5241 15.4083 15.5241 14.8117V1.93221C15.5241 1.33262 15.0245 0.847656 14.4102 0.847656ZM4.94019 13.6713H2.70642V6.48793H4.94019V13.6713ZM3.8233 5.50918C3.10614 5.50918 2.52713 4.93016 2.52713 4.21595C2.52713 3.50173 3.10614 2.92271 3.8233 2.92271C4.53752 2.92271 5.11654 3.50173 5.11654 4.21595C5.11654 4.92723 4.53752 5.50918 3.8233 5.50918ZM13.2992 13.6713H11.0684V10.1795C11.0684 9.34774 11.0537 8.27494 9.90739 8.27494C8.74641 8.27494 8.57006 9.18315 8.57006 10.1207V13.6713H6.34217V6.48793H8.48189V7.46961H8.51128C8.80814 6.90529 9.53705 6.30864 10.6216 6.30864C12.8818 6.30864 13.2992 7.79586 13.2992 9.72983V13.6713V13.6713Z" fill="#98A2B3"/>
</svg>
