<svg width="14" height="14" viewBox="0 0 14 14" fill="none" xmlns="http://www.w3.org/2000/svg">
<path d="M13.2393 7.00452C13.2416 7.86919 13.0396 8.72216 12.6497 9.49396C12.1875 10.4188 11.4769 11.1967 10.5975 11.7405C9.71818 12.2843 8.70478 12.5726 7.67085 12.573C6.80618 12.5752 5.95322 12.3732 5.18142 11.9834L1.44727 13.2281L2.69198 9.49396C2.30214 8.72216 2.10013 7.86919 2.10238 7.00452C2.10278 5.97059 2.39103 4.95719 2.93485 4.07783C3.47866 3.19847 4.25656 2.48788 5.18142 2.02566C5.95322 1.63582 6.80618 1.4338 7.67085 1.43605H7.99841C9.36389 1.51139 10.6536 2.08774 11.6206 3.05475C12.5876 4.02176 13.164 5.31148 13.2393 6.67697V7.00452Z" stroke="white" stroke-width="1.31023" stroke-linecap="round" stroke-linejoin="round"/>
</svg>
