<svg width="14" height="14" viewBox="0 0 14 17" fill="none" xmlns="http://www.w3.org/2000/svg">
<path d="M12.5665 7.39456C12.5665 11.9804 6.67044 15.911 6.67044 15.911C6.67044 15.911 0.774414 11.9804 0.774414 7.39456C0.774414 5.83084 1.3956 4.33116 2.50132 3.22544C3.60704 2.11972 5.10672 1.49854 6.67044 1.49854C8.23416 1.49854 9.73384 2.11972 10.8396 3.22544C11.9453 4.33116 12.5665 5.83084 12.5665 7.39456Z" stroke="white" stroke-width="1.31023" stroke-linecap="round" stroke-linejoin="round"/>
<path d="M6.67044 9.3599C7.75587 9.3599 8.63578 8.47999 8.63578 7.39456C8.63578 6.30913 7.75587 5.42922 6.67044 5.42922C5.58501 5.42922 4.7051 6.30913 4.7051 7.39456C4.7051 8.47999 5.58501 9.3599 6.67044 9.3599Z" stroke="white" stroke-width="1.31023" stroke-linecap="round" stroke-linejoin="round"/>
</svg>
