<svg width="15" height="15" viewBox="0 0 15 15" fill="none" xmlns="http://www.w3.org/2000/svg">
<path d="M13.8942 10.9277V12.893C13.895 13.0755 13.8576 13.2561 13.7845 13.4232C13.7114 13.5904 13.6042 13.7405 13.4698 13.8638C13.3353 13.9872 13.1766 14.0811 13.0038 14.1395C12.8309 14.198 12.6478 14.2197 12.4661 14.2033C10.4502 13.9842 8.51377 13.2954 6.81244 12.1921C5.22957 11.1862 3.88757 9.84424 2.88175 8.26137C1.77459 6.55231 1.08559 4.60649 0.870552 2.58153C0.854181 2.40037 0.875711 2.21779 0.933771 2.0454C0.99183 1.87302 1.08515 1.71461 1.20778 1.58027C1.33042 1.44593 1.47968 1.33859 1.64607 1.2651C1.81246 1.1916 1.99233 1.15356 2.17423 1.15338H4.13957C4.4575 1.15025 4.76572 1.26284 5.00679 1.47015C5.24785 1.67747 5.4053 1.96536 5.4498 2.28018C5.53275 2.90913 5.68659 3.52668 5.90838 4.12105C5.99652 4.35553 6.0156 4.61036 5.96335 4.85535C5.9111 5.10034 5.78971 5.32522 5.61358 5.50334L4.78158 6.33534C5.71417 7.97544 7.07216 9.33343 8.71227 10.266L9.54426 9.43403C9.72238 9.25789 9.94726 9.1365 10.1922 9.08426C10.4372 9.03201 10.6921 9.05108 10.9266 9.13922C11.5209 9.36101 12.1385 9.51485 12.7674 9.5978C13.0857 9.6427 13.3763 9.80299 13.584 10.0482C13.7918 10.2934 13.9022 10.6064 13.8942 10.9277Z" stroke="white" stroke-width="1.31023" stroke-linecap="round" stroke-linejoin="round"/>
</svg>
