<svg width="18" height="18" viewBox="0 0 18 18" fill="none" xmlns="http://www.w3.org/2000/svg">
<path d="M13 11.5H12.21L11.93 11.23C12.9439 10.054 13.5011 8.5527 13.5 7C13.5 5.71442 13.1188 4.45772 12.4046 3.3888C11.6903 2.31988 10.6752 1.48676 9.48744 0.994786C8.29973 0.502816 6.99279 0.374095 5.73192 0.624899C4.47104 0.875703 3.31285 1.49477 2.40381 2.40381C1.49477 3.31285 0.875703 4.47104 0.624899 5.73192C0.374095 6.99279 0.502816 8.29973 0.994786 9.48744C1.48676 10.6752 2.31988 11.6903 3.3888 12.4046C4.45772 13.1188 5.71442 13.5 7 13.5C8.61 13.5 10.09 12.91 11.23 11.93L11.5 12.21V13L16.5 17.99L17.99 16.5L13 11.5ZM7 11.5C4.51 11.5 2.5 9.49 2.5 7C2.5 4.51 4.51 2.5 7 2.5C9.49 2.5 11.5 4.51 11.5 7C11.5 9.49 9.49 11.5 7 11.5Z" fill="#101828" fill-opacity="0.38"/>
</svg>
