<svg width="16" height="13" viewBox="0 0 16 13" fill="none" xmlns="http://www.w3.org/2000/svg">
<path d="M5.62084 12.4857C11.2981 12.4857 14.4043 7.78097 14.4043 3.70228C14.4043 3.57002 14.4013 3.43482 14.3954 3.30256C14.9997 2.86558 15.5211 2.32433 15.9353 1.70424C15.3725 1.95461 14.7751 2.11812 14.1632 2.1892C14.8074 1.80306 15.2898 1.19646 15.5209 0.481834C14.9148 0.840987 14.2521 1.09434 13.561 1.23103C13.0954 0.736276 12.4797 0.408692 11.8093 0.298921C11.1388 0.189151 10.4508 0.30331 9.85173 0.623748C9.25264 0.944186 8.7758 1.45305 8.49492 2.07168C8.21405 2.6903 8.14478 3.38423 8.29784 4.04617C7.07073 3.98459 5.87026 3.66582 4.77425 3.11052C3.67824 2.55523 2.71116 1.7758 1.93571 0.822778C1.54158 1.5023 1.42098 2.3064 1.59841 3.07164C1.77584 3.83689 2.23799 4.50587 2.89094 4.94261C2.40075 4.92705 1.92129 4.79507 1.49219 4.55758V4.59579C1.49175 5.3089 1.73828 6.00015 2.18987 6.55205C2.64146 7.10394 3.27024 7.48242 3.96932 7.62314C3.51523 7.74738 3.03865 7.76548 2.57645 7.67604C2.77372 8.28932 3.15753 8.82571 3.67432 9.21035C4.19111 9.59499 4.81509 9.8087 5.45919 9.82164C4.36571 10.6806 3.01494 11.1465 1.62445 11.1443C1.37786 11.1439 1.13151 11.1288 0.886719 11.099C2.29931 12.0053 3.94254 12.4866 5.62084 12.4857Z" fill="#98A2B3"/>
</svg>
