<svg width="28" height="25" viewBox="0 0 28 25" fill="none" xmlns="http://www.w3.org/2000/svg">
<path d="M5.78088 0.460022C6.44088 0.460022 7.62488 0.664022 7.62488 2.28902C7.62488 3.91402 6.45288 4.53902 5.78088 4.53902C5.10888 4.53902 4.07788 3.90102 4.07788 2.28902C4.07788 0.676022 5.21088 0.460022 5.78088 0.460022ZM2.15588 2.50002C2.81588 2.50002 3.99988 2.70302 3.99988 4.32802C3.99988 5.95302 2.82788 6.57802 2.15588 6.57802C1.48388 6.57802 0.452881 5.94102 0.452881 4.32802C0.452881 2.71602 1.58588 2.50002 2.15588 2.50002ZM11.9999 2.28902C11.9999 0.664022 10.8159 0.461022 10.1559 0.461022C9.58588 0.461022 8.45288 0.676022 8.45288 2.28902C8.45288 3.90102 9.48388 4.53902 10.1559 4.53902C10.8279 4.53902 11.9999 3.91402 11.9999 2.28902ZM13.7029 2.50002C14.3629 2.50002 15.5469 2.70302 15.5469 4.32802C15.5469 5.95302 14.3749 6.57802 13.7029 6.57802C13.0309 6.57802 11.9999 5.94102 11.9999 4.32802C11.9999 2.71602 13.1329 2.50002 13.7029 2.50002ZM12.9839 10.469C12.9839 7.54702 11.0939 5.01602 7.99988 5.01602C4.90588 5.01602 3.04688 7.48402 3.04688 10.469C3.04688 12.953 6.00788 12.953 7.99288 12.953H7.99988C10.2029 12.953 12.9839 12.875 12.9839 10.469ZM14.1559 14.547C14.8159 14.547 15.9999 14.75 15.9999 16.375C15.9999 18 14.8279 18.625 14.1559 18.625C13.4839 18.625 12.4529 17.987 12.4529 16.375C12.4529 14.762 13.5859 14.547 14.1559 14.547ZM19.6249 14.336C19.6249 12.711 18.4409 12.508 17.7809 12.508C17.2109 12.508 16.0779 12.723 16.0779 14.336C16.0779 15.948 17.1089 16.586 17.7809 16.586C18.4529 16.586 19.6249 15.961 19.6249 14.336ZM22.1559 12.508C22.8159 12.508 23.9999 12.711 23.9999 14.336C23.9999 15.961 22.8279 16.586 22.1559 16.586C21.4839 16.586 20.4529 15.948 20.4529 14.336C20.4529 12.723 21.5859 12.508 22.1559 12.508ZM27.5469 16.375C27.5469 14.75 26.3629 14.547 25.7029 14.547C25.1329 14.547 23.9999 14.762 23.9999 16.375C23.9999 17.987 25.0309 18.625 25.7029 18.625C26.3749 18.625 27.5469 18 27.5469 16.375ZM19.9999 17.063C23.0939 17.063 24.9839 19.593 24.9839 22.516C24.9839 24.922 22.2039 25 19.9999 25H19.9919C18.0079 25 15.0469 25 15.0469 22.516C15.0469 19.531 16.9069 17.063 19.9999 17.063Z" fill="white"/>
</svg>
