<svg width="28" height="26" viewBox="0 0 28 26" fill="none" xmlns="http://www.w3.org/2000/svg">
<path d="M5.78088 0.959961C6.44088 0.959961 7.62488 1.16396 7.62488 2.78896C7.62488 4.41396 6.45288 5.03896 5.78088 5.03896C5.10888 5.03896 4.07788 4.40096 4.07788 2.78896C4.07788 1.17596 5.21088 0.959961 5.78088 0.959961ZM2.15588 2.99996C2.81588 2.99996 3.99988 3.20296 3.99988 4.82796C3.99988 6.45296 2.82788 7.07796 2.15588 7.07796C1.48388 7.07796 0.452881 6.44096 0.452881 4.82796C0.452881 3.21596 1.58588 2.99996 2.15588 2.99996ZM11.9999 2.78896C11.9999 1.16396 10.8159 0.960961 10.1559 0.960961C9.58588 0.960961 8.45288 1.17596 8.45288 2.78896C8.45288 4.40096 9.48388 5.03896 10.1559 5.03896C10.8279 5.03896 11.9999 4.41396 11.9999 2.78896ZM13.7029 2.99996C14.3629 2.99996 15.5469 3.20296 15.5469 4.82796C15.5469 6.45296 14.3749 7.07796 13.7029 7.07796C13.0309 7.07796 11.9999 6.44096 11.9999 4.82796C11.9999 3.21596 13.1329 2.99996 13.7029 2.99996ZM12.9839 10.969C12.9839 8.04696 11.0939 5.51596 7.99988 5.51596C4.90588 5.51596 3.04688 7.98396 3.04688 10.969C3.04688 13.453 6.00788 13.453 7.99288 13.453H7.99988C10.2029 13.453 12.9839 13.375 12.9839 10.969ZM14.1559 15.047C14.8159 15.047 15.9999 15.25 15.9999 16.875C15.9999 18.5 14.8279 19.125 14.1559 19.125C13.4839 19.125 12.4529 18.487 12.4529 16.875C12.4529 15.262 13.5859 15.047 14.1559 15.047ZM19.6249 14.836C19.6249 13.211 18.4409 13.008 17.7809 13.008C17.2109 13.008 16.0779 13.223 16.0779 14.836C16.0779 16.448 17.1089 17.086 17.7809 17.086C18.4529 17.086 19.6249 16.461 19.6249 14.836ZM22.1559 13.008C22.8159 13.008 23.9999 13.211 23.9999 14.836C23.9999 16.461 22.8279 17.086 22.1559 17.086C21.4839 17.086 20.4529 16.448 20.4529 14.836C20.4529 13.223 21.5859 13.008 22.1559 13.008ZM27.5469 16.875C27.5469 15.25 26.3629 15.047 25.7029 15.047C25.1329 15.047 23.9999 15.262 23.9999 16.875C23.9999 18.487 25.0309 19.125 25.7029 19.125C26.3749 19.125 27.5469 18.5 27.5469 16.875ZM19.9999 17.563C23.0939 17.563 24.9839 20.093 24.9839 23.016C24.9839 25.422 22.2039 25.5 19.9999 25.5H19.9919C18.0079 25.5 15.0469 25.5 15.0469 23.016C15.0469 20.031 16.9069 17.563 19.9999 17.563Z" fill="#101828"/>
</svg>
